<svg width="48" height="48" viewBox="0 0 48 48" fill="none" xmlns="http://www.w3.org/2000/svg">
<g clip-path="url(#clip0_14960_7778)">
<path d="M27.0634 20.5265H20.9322C20.0322 20.5265 19.3 21.2587 19.3 22.1578V46.365C19.3 47.2659 20.0322 47.999 20.9322 47.999H27.0634C27.9644 47.999 28.6975 47.2659 28.6975 46.365V22.1587C28.6984 21.2587 27.9653 20.5265 27.0634 20.5265ZM27.1994 46.365C27.1994 46.4372 27.1366 46.5009 27.0634 46.5009H20.9322C20.86 46.5009 20.7991 46.439 20.7991 46.365V22.1587C20.7991 22.0865 20.86 22.0256 20.9322 22.0256H27.0634C27.1366 22.0256 27.1994 22.0865 27.1994 22.1587V46.365ZM11.7194 28.6509H5.58813C4.68719 28.6509 3.95406 29.384 3.95406 30.285V46.365C3.95406 47.2659 4.68719 47.999 5.58813 47.999H11.7194C12.6194 47.999 13.3516 47.2659 13.3516 46.365V30.285C13.3516 29.384 12.6194 28.6509 11.7194 28.6509ZM11.8525 46.365C11.8525 46.4381 11.7916 46.5009 11.7194 46.5009H5.58813C5.51594 46.5009 5.45312 46.4372 5.45312 46.365V30.285C5.45312 30.2128 5.51594 30.149 5.58813 30.149H11.7194C11.7916 30.149 11.8525 30.2109 11.8525 30.285V46.365ZM42.4103 12.4003H36.28C35.38 12.4003 34.6478 13.1334 34.6478 14.0343V46.365C34.6478 47.2659 35.38 47.999 36.28 47.999H42.4103C43.3113 47.999 44.0444 47.2659 44.0444 46.365V14.0343C44.0453 13.1334 43.3122 12.4003 42.4103 12.4003ZM42.5462 46.365C42.5462 46.4372 42.4834 46.5009 42.4103 46.5009H36.28C36.2078 46.5009 36.1469 46.439 36.1469 46.365V14.0343C36.1469 13.9612 36.2078 13.8984 36.28 13.8984H42.4103C42.4825 13.8984 42.5462 13.9622 42.5462 14.0343V46.365ZM41.8994 4.07341L15.7478 17.9203C15.6362 17.9793 15.5163 18.0075 15.3981 18.0075C15.1291 18.0075 14.8694 17.8622 14.7353 17.609C14.5412 17.2434 14.6809 16.7897 15.0466 16.5956L41.4869 2.59591L38.41 1.45216C38.0219 1.30778 37.8241 0.876532 37.9684 0.488407C38.1128 0.100282 38.5441 -0.0965929 38.9322 0.0468446L43.5559 1.76622C43.9441 1.91059 44.1419 2.34184 43.9975 2.72997L42.2781 7.35372C42.1656 7.6556 41.8797 7.84216 41.5759 7.84216C41.4888 7.84216 41.4006 7.82716 41.3144 7.79528C40.9263 7.65091 40.7284 7.21966 40.8728 6.83153L41.8994 4.07341ZM9.51062 19.169H9.38781C10.6562 18.8418 11.5966 17.6868 11.5966 16.3172C11.5966 14.6934 10.2756 13.3725 8.65188 13.3725C7.02813 13.3725 5.70719 14.6934 5.70719 16.3172C5.70719 17.6868 6.6475 18.8409 7.91594 19.169H7.79312C5.67531 19.169 3.95312 20.8931 3.95312 23.0118V25.3772C3.95312 26.19 4.615 26.8518 5.42781 26.8518H11.875C12.6878 26.8518 13.3497 26.19 13.3497 25.3772V23.0118C13.3516 20.8922 11.6284 19.169 9.51062 19.169ZM7.20719 16.3172C7.20719 15.5203 7.85594 14.8715 8.65281 14.8715C9.44969 14.8715 10.0984 15.5203 10.0984 16.3172C10.0984 17.114 9.44969 17.7628 8.65281 17.7628C7.85594 17.7628 7.20719 17.114 7.20719 16.3172ZM11.8525 25.3528H5.45312V23.0118C5.45312 21.719 6.50313 20.6681 7.79406 20.6681H9.51062C10.8016 20.6681 11.8516 21.72 11.8516 23.0118V25.3528H11.8525Z" fill="#092C4C"/>
<g clip-path="url(#clip1_14960_7778)">
<path d="M41.8994 4.07341L15.7478 17.9203C15.6362 17.9793 15.5162 18.0075 15.3981 18.0075C15.1291 18.0075 14.8694 17.8622 14.7353 17.609C14.5412 17.2434 14.6809 16.7897 15.0466 16.5956L41.4869 2.59591L38.41 1.45216C38.0219 1.30778 37.8241 0.876532 37.9684 0.488407C38.1128 0.100282 38.5441 -0.0965929 38.9322 0.0468446L43.5559 1.76622C43.9441 1.91059 44.1419 2.34184 43.9975 2.72997L42.2781 7.35372C42.1656 7.6556 41.8797 7.84216 41.5759 7.84216C41.4887 7.84216 41.4006 7.82716 41.3144 7.79528C40.9263 7.65091 40.7284 7.21966 40.8728 6.83153L41.8994 4.07341ZM9.51062 19.169H9.38781C10.6562 18.8418 11.5966 17.6868 11.5966 16.3172C11.5966 14.6934 10.2756 13.3725 8.65188 13.3725C7.02813 13.3725 5.70719 14.6934 5.70719 16.3172C5.70719 17.6868 6.6475 18.8409 7.91594 19.169H7.79312C5.67531 19.169 3.95312 20.8931 3.95312 23.0118V25.3772C3.95312 26.19 4.615 26.8518 5.42781 26.8518H11.875C12.6878 26.8518 13.3497 26.19 13.3497 25.3772V23.0118C13.3516 20.8922 11.6284 19.169 9.51062 19.169ZM7.20719 16.3172C7.20719 15.5203 7.85594 14.8715 8.65281 14.8715C9.44969 14.8715 10.0984 15.5203 10.0984 16.3172C10.0984 17.114 9.44969 17.7628 8.65281 17.7628C7.85594 17.7628 7.20719 17.114 7.20719 16.3172ZM11.8525 25.3528H5.45312V23.0118C5.45312 21.719 6.50313 20.6681 7.79406 20.6681H9.51062C10.8016 20.6681 11.8516 21.72 11.8516 23.0118L11.8525 25.3528Z" fill="#FF9B00"/>
</g>
</g>
<defs>
<clipPath id="clip0_14960_7778">
<rect width="48" height="48" fill="white"/>
</clipPath>
<clipPath id="clip1_14960_7778">
<path d="M0 0H48C48 15.464 35.464 28 20 28H0V0Z" fill="white"/>
</clipPath>
</defs>
</svg>
