<svg width="48" height="48" viewBox="0 0 48 48" fill="none" xmlns="http://www.w3.org/2000/svg">
<g clip-path="url(#clip0_14960_7818)">
<path d="M41.5157 28.2736C40.7649 27.6576 39.5674 27.5064 38.7314 28.4095L34.6682 32.7983C34.412 31.599 33.3441 30.697 32.0696 30.697H25.0376L24.2632 30.2498C23.3479 29.7215 22.4295 29.4754 21.3726 29.4754H18.4224C16.8606 29.4754 15.4869 30.0436 14.3393 31.164L10.6145 34.8006L9.71864 33.9047C9.49898 33.6849 9.14283 33.6849 8.92317 33.9047L5.84245 36.9853C5.73698 37.0908 5.67773 37.2337 5.67773 37.383C5.67773 37.5322 5.73698 37.6752 5.84245 37.7807L15.5218 47.46C15.6315 47.5699 15.7755 47.6248 15.9195 47.6248C16.0635 47.6248 16.2075 47.5699 16.3173 47.46L19.398 44.3794C19.6176 44.1597 19.6176 43.8036 19.398 43.584L18.4801 42.6662L18.967 42.107C19.4469 41.5556 20.0609 41.2762 20.7919 41.2762H31.4573C33.4392 41.2762 35.2015 40.3509 36.4199 38.671L41.9326 31.0696C42.6651 30.0596 42.2775 28.8984 41.5158 28.2735L41.5157 28.2736ZM15.9195 46.267L7.03561 37.3832L9.32077 35.098L18.2045 43.9819L15.9194 46.267H15.9195ZM41.0219 30.4093L35.5091 38.0107C34.4935 39.4112 33.0924 40.1513 31.4572 40.1513H20.7918C19.736 40.1513 18.8115 40.5722 18.1184 41.3685L17.6826 41.8689L11.4099 35.5962L15.125 31.969C16.0682 31.0482 17.1467 30.6005 18.4222 30.6005H21.3724C22.2353 30.6005 22.9533 30.7928 23.7005 31.2242L24.6055 31.7467C24.691 31.796 24.788 31.822 24.8867 31.822H32.0695C32.9144 31.822 33.6016 32.5094 33.6016 33.3543C33.6016 33.7294 33.4627 34.0912 33.2104 34.3731C32.9184 34.6993 32.5025 34.8865 32.0695 34.8865H25.9457C25.6351 34.8865 25.3832 35.1384 25.3832 35.449C25.3832 35.7596 25.6351 36.0115 25.9457 36.0115H32.0695C32.8182 36.0115 33.5358 35.6909 34.0406 35.1319C34.0411 35.1313 34.0418 35.1309 34.0424 35.1303L39.5568 29.1738C39.9654 28.7322 40.483 28.8815 40.8021 29.1433C41.1312 29.4133 41.3861 29.9069 41.0219 30.4092V30.4093ZM21.2757 18.1035C21.4793 18.4264 21.6748 18.7309 21.8621 19.0228C22.6711 20.2831 23.3141 21.286 23.8096 22.5126V25.3757C23.8096 25.9688 24.2919 26.4515 24.885 26.4521V28.3364C24.885 28.8799 25.327 29.322 25.8705 29.322H31.0148C31.5582 29.322 32.0003 28.8799 32.0003 28.3364V26.4521C32.5933 26.4515 33.0755 25.9688 33.0755 25.3757V22.5127C33.5711 21.286 34.2141 20.283 35.0232 19.0226C35.2105 18.7308 35.406 18.4263 35.6096 18.1034C36.4605 16.7543 36.9102 15.1946 36.9102 13.5927C36.9102 8.92369 33.1116 5.12522 28.4426 5.12522C23.7735 5.12522 19.9751 8.92378 19.9751 13.5927C19.9751 15.1946 20.4248 16.7544 21.2757 18.1034V18.1035ZM30.8753 28.197H26.01V26.4522H30.8753V28.197ZM31.9505 25.3272H24.9346V22.9653H31.9505V25.3272ZM27.0465 13.7386L25.6452 12.7246L27.3749 12.7279H27.376C27.62 12.7279 27.8363 12.5705 27.9113 12.3382L28.4426 10.6922L28.9739 12.3382C29.0489 12.5706 29.265 12.7279 29.5092 12.7279H29.5103L31.24 12.7246L29.8386 13.7386C29.6406 13.8818 29.5577 14.1367 29.6338 14.3692L30.1714 16.0131L28.7741 14.9936C28.6753 14.9216 28.5589 14.8856 28.4426 14.8856C28.3262 14.8856 28.2099 14.9217 28.1111 14.9936L26.7137 16.0131L27.2514 14.3692C27.3274 14.1367 27.2445 13.8819 27.0465 13.7386ZM28.4426 6.25031C32.4913 6.25031 35.7852 9.54412 35.7852 13.5928C35.7852 14.982 35.3955 16.3342 34.6581 17.5033C34.4562 17.8236 34.2623 18.1255 34.0765 18.415C33.2891 19.6417 32.6525 20.6334 32.1361 21.8403H29.0052V16.5547L30.9164 17.9489C31.0151 18.0209 31.1315 18.0569 31.2479 18.0569C31.3642 18.0569 31.4799 18.0211 31.5785 17.9495C31.776 17.806 31.8584 17.5515 31.7825 17.3195L30.8308 14.4093L33.3114 12.6142C33.5091 12.4712 33.592 12.2169 33.5165 11.9847C33.4412 11.7529 33.2252 11.596 32.9816 11.596H32.9805L29.9186 11.6018L28.978 8.688C28.903 8.45569 28.6868 8.29828 28.4427 8.29828C28.1985 8.29828 27.9824 8.45569 27.9074 8.688L26.9668 11.6018L23.9049 11.596H23.9038C23.6601 11.596 23.4441 11.753 23.3688 11.9847C23.2934 12.2169 23.3763 12.4711 23.574 12.6142L26.0546 14.4093L25.1028 17.3195C25.0269 17.5515 25.1094 17.8059 25.3068 17.9495C25.5043 18.0928 25.7717 18.0925 25.969 17.9488L27.8801 16.5546V21.8401H24.7491C24.2327 20.6332 23.5962 19.6416 22.8088 18.4149C22.623 18.1254 22.4291 17.8234 22.227 17.5031C21.4897 16.3341 21.1 14.9818 21.1 13.5926C21.1 9.54394 24.3938 6.25012 28.4425 6.25012L28.4426 6.25031ZM27.8803 3.14241C27.8803 3.13819 27.8801 3.13191 27.8801 3.12759V0.9375C27.8801 0.626906 28.132 0.375 28.4426 0.375C28.7532 0.375 29.0051 0.626906 29.0051 0.9375V3.12722C29.0054 3.43219 28.7618 3.68391 28.4554 3.69084C28.451 3.69084 28.4467 3.69094 28.4423 3.69094C28.1376 3.69094 27.8872 3.4485 27.8803 3.14222V3.14241ZM18.7763 5.17453C18.5566 4.95487 18.5566 4.59872 18.7763 4.37906C18.996 4.15941 19.3522 4.15941 19.5718 4.37906L21.1189 5.92622C21.3343 6.13987 21.3424 6.48806 21.1336 6.71072C21.0227 6.82903 20.873 6.88884 20.7229 6.88884C20.5855 6.88884 20.4477 6.83859 20.3394 6.73697C20.335 6.73284 20.3292 6.72722 20.3249 6.723L18.7763 5.17453ZM14.7724 14.0453C14.7724 13.7347 15.0243 13.4828 15.3349 13.4828H17.5249C17.8355 13.4828 18.0885 13.7347 18.0885 14.0453C18.0885 14.3559 17.8376 14.6078 17.527 14.6078H15.3349C15.0243 14.6078 14.7724 14.3559 14.7724 14.0453ZM21.108 21.3543C21.3346 21.5668 21.3468 21.922 21.1344 22.1486C21.1303 22.153 21.1246 22.1588 21.1204 22.1631L19.5719 23.7117C19.4621 23.8215 19.318 23.8764 19.1741 23.8764C19.0302 23.8764 18.8862 23.8215 18.7763 23.7116C18.5566 23.492 18.5566 23.1358 18.7763 22.9162L20.3235 21.369C20.5373 21.1537 20.8854 21.1455 21.108 21.3543ZM35.7771 6.73641C35.5505 6.52397 35.5383 6.16875 35.7508 5.94206C35.7549 5.93766 35.7605 5.93184 35.7647 5.92753L37.3133 4.37897C37.533 4.15931 37.8891 4.15931 38.1088 4.37897C38.3284 4.59862 38.3284 4.95478 38.1088 5.17444L36.5616 6.72159C36.4519 6.83212 36.3067 6.88809 36.1613 6.88809C36.0235 6.88809 35.8855 6.83794 35.7771 6.73631V6.73641ZM38.7973 14.0703C38.7835 13.7599 39.0228 13.4973 39.3331 13.4834C39.3415 13.483 39.3519 13.4827 39.3602 13.4827H41.5502C41.8608 13.4827 42.1127 13.7347 42.1127 14.0452C42.1127 14.3558 41.8608 14.6077 41.5502 14.6077H39.3599C39.0606 14.6077 38.8108 14.3721 38.7974 14.0703H38.7973ZM38.1089 22.9162C38.3285 23.1358 38.3285 23.492 38.1089 23.7116C37.9991 23.8214 37.855 23.8763 37.7111 23.8763C37.5672 23.8763 37.4232 23.8214 37.3133 23.7115L35.7661 22.1643C35.5508 21.9507 35.5426 21.6025 35.7514 21.3798C35.9639 21.1533 36.3191 21.1409 36.5458 21.3535C36.5502 21.3577 36.556 21.3633 36.5603 21.3675L38.1089 22.9162Z" fill="#092C4C"/>
<g clip-path="url(#clip1_14960_7818)">
<path d="M15.9195 46.267L7.03561 37.3832L9.32077 35.098L18.2045 43.9819L15.9195 46.267ZM21.2757 18.1035C21.4793 18.4264 21.6748 18.7309 21.8621 19.0228C22.6711 20.2831 23.3141 21.286 23.8096 22.5126V25.3757C23.8096 25.9688 24.2919 26.4515 24.885 26.4521V28.3364C24.885 28.8799 25.327 29.322 25.8705 29.322H31.0148C31.5582 29.322 32.0003 28.8799 32.0003 28.3364V26.4521C32.5933 26.4515 33.0755 25.9688 33.0755 25.3757V22.5127C33.5711 21.286 34.2141 20.283 35.0232 19.0226C35.2105 18.7308 35.406 18.4263 35.6096 18.1034C36.4605 16.7543 36.9102 15.1946 36.9102 13.5927C36.9102 8.92369 33.1116 5.12522 28.4426 5.12522C23.7735 5.12522 19.9751 8.92378 19.9751 13.5927C19.9751 15.1946 20.4248 16.7545 21.2757 18.1035ZM30.8753 28.197H26.01V26.4522H30.8753V28.197ZM31.9505 25.3272H24.9346V22.9653H31.9505V25.3272ZM27.0465 13.7386L25.6452 12.7246L27.3749 12.7279H27.376C27.62 12.7279 27.8363 12.5705 27.9113 12.3382L28.4426 10.6922L28.9739 12.3382C29.0489 12.5706 29.265 12.7279 29.5092 12.7279H29.5103L31.24 12.7246L29.8386 13.7386C29.6406 13.8818 29.5577 14.1367 29.6338 14.3692L30.1714 16.0131L28.7741 14.9936C28.6753 14.9216 28.5589 14.8856 28.4426 14.8856C28.3262 14.8856 28.2099 14.9217 28.1111 14.9936L26.7137 16.0131L27.2514 14.3692C27.3274 14.1367 27.2445 13.8819 27.0465 13.7386ZM28.4426 6.25031C32.4913 6.25031 35.7852 9.54412 35.7852 13.5928C35.7852 14.982 35.3955 16.3342 34.6581 17.5033C34.4562 17.8236 34.2623 18.1255 34.0765 18.415C33.2891 19.6417 32.6525 20.6334 32.1361 21.8403H29.0052V16.5547L30.9164 17.9489C31.0151 18.0209 31.1315 18.0569 31.2479 18.0569C31.3642 18.0569 31.4799 18.0211 31.5785 17.9495C31.776 17.806 31.8584 17.5515 31.7825 17.3195L30.8308 14.4093L33.3114 12.6142C33.5091 12.4712 33.592 12.2169 33.5165 11.9847C33.4412 11.7529 33.2252 11.596 32.9816 11.596H32.9805L29.9186 11.6018L28.978 8.688C28.903 8.45569 28.6868 8.29828 28.4427 8.29828C28.1985 8.29828 27.9824 8.45569 27.9074 8.688L26.9668 11.6018L23.9049 11.596H23.9038C23.6601 11.596 23.4441 11.753 23.3688 11.9847C23.2934 12.2169 23.3763 12.4711 23.574 12.6142L26.0546 14.4093L25.1028 17.3195C25.0269 17.5515 25.1094 17.8059 25.3068 17.9495C25.5043 18.0928 25.7717 18.0925 25.969 17.9488L27.8801 16.5546V21.8401H24.7491C24.2327 20.6332 23.5962 19.6416 22.8088 18.4149C22.623 18.1254 22.4291 17.8234 22.227 17.5031C21.4897 16.3341 21.1 14.9818 21.1 13.5926C21.1 9.54394 24.3939 6.25031 28.4426 6.25031ZM27.8803 3.14241C27.8803 3.13819 27.8801 3.13191 27.8801 3.12759V0.9375C27.8801 0.626906 28.132 0.375 28.4426 0.375C28.7532 0.375 29.0051 0.626906 29.0051 0.9375V3.12722C29.0054 3.43219 28.7618 3.68391 28.4554 3.69084C28.451 3.69084 28.4467 3.69094 28.4423 3.69094C28.1376 3.69094 27.8872 3.44869 27.8803 3.14241ZM18.7763 5.17453C18.5566 4.95487 18.5566 4.59872 18.7763 4.37906C18.996 4.15941 19.3522 4.15941 19.5718 4.37906L21.1189 5.92622C21.3343 6.13987 21.3424 6.48806 21.1336 6.71072C21.0227 6.82903 20.873 6.88884 20.7229 6.88884C20.5855 6.88884 20.4477 6.83859 20.3394 6.73697C20.335 6.73284 20.3292 6.72722 20.3249 6.723L18.7763 5.17453ZM14.7724 14.0453C14.7724 13.7347 15.0243 13.4828 15.3349 13.4828H17.5249C17.8355 13.4828 18.0885 13.7347 18.0885 14.0453C18.0885 14.3559 17.8376 14.6078 17.527 14.6078H15.3349C15.0243 14.6078 14.7724 14.3559 14.7724 14.0453ZM21.108 21.3543C21.3346 21.5668 21.3468 21.922 21.1344 22.1486C21.1303 22.153 21.1246 22.1588 21.1204 22.1631L19.5719 23.7117C19.4621 23.8215 19.318 23.8764 19.1741 23.8764C19.0302 23.8764 18.8862 23.8215 18.7763 23.7116C18.5566 23.492 18.5566 23.1358 18.7763 22.9162L20.3236 21.369C20.5373 21.1537 20.8854 21.1455 21.108 21.3543ZM35.7771 6.73641C35.5505 6.52397 35.5383 6.16875 35.7508 5.94206C35.7549 5.93766 35.7605 5.93184 35.7647 5.92753L37.3133 4.37897C37.533 4.15931 37.8891 4.15931 38.1088 4.37897C38.3284 4.59862 38.3284 4.95478 38.1088 5.17444L36.5616 6.72159C36.4519 6.83212 36.3067 6.88809 36.1613 6.88809C36.0235 6.88809 35.8855 6.83803 35.7771 6.73641ZM38.7973 14.0703C38.7835 13.7599 39.0228 13.4973 39.3331 13.4834C39.3415 13.483 39.3519 13.4827 39.3602 13.4827H41.5502C41.8608 13.4827 42.1127 13.7347 42.1127 14.0452C42.1127 14.3558 41.8608 14.6077 41.5502 14.6077H39.3599C39.0606 14.6077 38.8107 14.3721 38.7973 14.0703ZM38.1089 22.9162C38.3285 23.1358 38.3285 23.492 38.1089 23.7116C37.9991 23.8214 37.855 23.8763 37.7111 23.8763C37.5672 23.8763 37.4232 23.8214 37.3133 23.7115L35.7661 22.1643C35.5508 21.9507 35.5426 21.6025 35.7514 21.3798C35.9639 21.1533 36.3191 21.1409 36.5458 21.3535C36.5502 21.3577 36.556 21.3633 36.5603 21.3675L38.1089 22.9162Z" fill="#FF9B00"/>
</g>
</g>
<defs>
<clipPath id="clip0_14960_7818">
<rect width="48" height="48" fill="white"/>
</clipPath>
<clipPath id="clip1_14960_7818">
<rect width="48" height="29" fill="white"/>
</clipPath>
</defs>
</svg>
