<svg width="48" height="48" viewBox="0 0 48 48" fill="none" xmlns="http://www.w3.org/2000/svg">
<g clip-path="url(#clip0_14984_3101)">
<mask id="path-1-inside-1_14984_3101" fill="white">
<path d="M47.3246 22.7998C47.0996 20.3998 45.2246 20.0248 44.5496 19.8748C43.2746 19.5748 41.9996 18.4498 41.2496 16.7248C40.5746 15.0748 40.4996 13.4998 41.0246 12.5248C41.9246 11.0998 42.5996 9.44981 40.7246 7.64981C39.5246 6.52481 38.7746 5.7748 37.4996 5.7748C36.8246 5.7748 36.0746 6.0748 35.3246 6.6748C34.9496 6.9748 34.4996 7.12481 34.0496 7.19981H33.9746C33.8996 7.19981 33.8246 7.1998 33.7496 7.27481H33.6746C31.5746 7.1998 28.1996 5.1748 27.8246 3.8248C27.5996 2.7748 27.0746 0.674805 24.3746 0.674805H23.6996H23.4746C20.7746 0.674805 20.2496 2.8498 20.0246 3.8248C19.9496 4.0498 19.7246 4.4998 19.0496 5.0998C17.9996 6.1498 15.8996 7.27481 14.2496 7.27481H14.1746C14.0246 7.1998 13.9496 7.19981 13.8746 7.19981C13.4996 7.04981 12.9746 6.9748 12.6746 6.7498C11.8496 6.0748 11.1746 5.7748 10.2746 5.7748C9.14961 5.8498 8.39961 6.52481 7.27461 7.57481C5.69961 9.07481 5.54961 10.4998 6.82461 12.4498C7.42461 13.4998 7.42461 15.1498 6.74961 16.7248C5.99961 18.4498 4.79961 19.6498 3.52461 19.8748C2.92461 20.0248 1.04961 20.3248 0.674609 22.4248C0.599609 22.6498 0.599609 22.7998 0.599609 23.1748V25.1248C0.824609 27.5248 2.62461 27.8998 3.44961 28.0498C5.54961 28.4998 7.19961 31.3498 7.27461 33.5998C7.27461 34.3498 7.12461 34.9498 6.82461 35.4748C5.92461 36.9748 5.39961 38.5498 7.19961 40.3498C8.39961 41.4748 9.22461 42.2248 10.4246 42.2248C11.1746 42.2248 11.8496 41.9248 12.6746 41.2498C12.9746 41.0248 13.4246 40.8748 13.8746 40.7998H13.9496C14.0996 40.7998 14.1746 40.7248 14.2496 40.7248C16.3496 40.7998 19.7246 42.8248 20.0996 44.1748C20.3246 45.2248 20.9246 47.3248 23.5496 47.3248H24.5246C27.2246 47.3248 27.7496 45.1498 27.9746 44.1748C28.2746 42.8248 31.6496 40.7998 33.8246 40.7248C33.8996 40.7248 34.0496 40.7998 34.1996 40.7998C34.6496 40.9498 35.0996 41.0248 35.4746 41.3248C36.2246 41.9248 36.8996 42.2248 37.6496 42.2248C38.8496 42.2248 39.5996 41.5498 40.7996 40.4248C42.3746 38.9248 42.5246 37.4998 41.2496 35.4748C40.6496 34.4998 40.7246 32.9248 41.3996 31.2748C42.1496 29.5498 43.3496 28.3498 44.6996 28.0498C46.5746 27.6748 47.3996 26.6998 47.5496 24.7498L47.3246 22.7998ZM44.1746 26.2498C42.2996 26.6248 40.5746 28.2748 39.5996 30.5248C38.6996 32.6998 38.6996 34.8748 39.5996 36.3748C40.4246 37.7998 40.3496 38.1748 39.4496 39.0748C38.3246 40.1248 37.9496 40.3498 37.5746 40.3498C37.2746 40.3498 36.9746 40.1998 36.5996 39.8998C35.9246 39.3748 35.1746 39.1498 34.6496 38.9998C34.4996 38.9248 34.4246 38.9248 34.3496 38.9248L34.0496 38.8498H33.8996C31.1996 38.8498 26.7746 41.3248 26.1746 43.7248C25.8746 45.0748 25.5746 45.5248 24.5246 45.5248H24.2996H23.5496C22.5746 45.5248 22.2746 45.1498 21.8996 43.7248C21.2996 41.3248 16.8746 38.8498 14.1746 38.8498H13.9496L13.7996 38.9248C13.7246 38.9248 13.6496 38.9998 13.4996 38.9998H13.4246C12.8996 39.1498 12.1496 39.2998 11.5496 39.8248C11.0996 40.1998 10.7996 40.3498 10.4996 40.3498C10.0496 40.3498 9.59961 39.9748 8.54961 38.9998C7.64961 38.1748 7.64961 37.7248 8.39961 36.4498C8.92461 35.6248 9.14961 34.6498 9.14961 33.5248C9.07461 30.5248 6.97461 26.8498 3.89961 26.2498C2.92461 26.0248 2.62461 25.7998 2.54961 25.0498V23.1748C2.54961 22.9498 2.54961 22.8748 2.62461 22.7248C2.77461 22.0498 3.14961 21.8248 3.97461 21.6748C5.84961 21.2998 7.49961 19.7248 8.47461 17.3998C9.44961 15.2248 9.37461 12.9748 8.47461 11.4748C7.64961 10.1998 7.79961 9.6748 8.62461 8.8498C9.59961 7.94981 10.0496 7.57481 10.4246 7.57481C10.6496 7.57481 11.0246 7.6498 11.6246 8.1748C12.2246 8.6248 12.9746 8.8498 13.4996 8.99981C13.5746 8.99981 13.6496 9.07481 13.7996 9.07481L14.2496 9.14981H14.3246C16.4246 9.14981 18.9746 7.7998 20.3996 6.5248C21.2246 5.7748 21.7496 5.0248 21.8996 4.2748C22.1996 2.9248 22.4996 2.5498 23.5496 2.5498H23.7746H24.4496C25.4246 2.5498 25.7246 2.9248 26.0996 4.2748C26.6996 6.6748 31.0496 9.14981 33.8246 9.14981H33.8996L34.5746 8.99981C35.0996 8.8498 35.8496 8.6248 36.5246 8.0998C36.8996 7.79981 37.2746 7.64981 37.4996 7.64981C37.9496 7.64981 38.3246 7.94981 39.5246 9.07481C40.3496 9.89981 40.3496 10.3498 39.5246 11.6248C38.6246 13.1248 38.6246 15.3748 39.5996 17.5498C40.5746 19.7998 42.2996 21.3748 44.1746 21.8248C45.0746 21.9748 45.4496 22.1998 45.5246 23.0248V24.8248C45.4496 25.7998 45.2246 26.0248 44.1746 26.2498Z"/>
</mask>
<path d="M47.3246 22.7998C47.0996 20.3998 45.2246 20.0248 44.5496 19.8748C43.2746 19.5748 41.9996 18.4498 41.2496 16.7248C40.5746 15.0748 40.4996 13.4998 41.0246 12.5248C41.9246 11.0998 42.5996 9.44981 40.7246 7.64981C39.5246 6.52481 38.7746 5.7748 37.4996 5.7748C36.8246 5.7748 36.0746 6.0748 35.3246 6.6748C34.9496 6.9748 34.4996 7.12481 34.0496 7.19981H33.9746C33.8996 7.19981 33.8246 7.1998 33.7496 7.27481H33.6746C31.5746 7.1998 28.1996 5.1748 27.8246 3.8248C27.5996 2.7748 27.0746 0.674805 24.3746 0.674805H23.6996H23.4746C20.7746 0.674805 20.2496 2.8498 20.0246 3.8248C19.9496 4.0498 19.7246 4.4998 19.0496 5.0998C17.9996 6.1498 15.8996 7.27481 14.2496 7.27481H14.1746C14.0246 7.1998 13.9496 7.19981 13.8746 7.19981C13.4996 7.04981 12.9746 6.9748 12.6746 6.7498C11.8496 6.0748 11.1746 5.7748 10.2746 5.7748C9.14961 5.8498 8.39961 6.52481 7.27461 7.57481C5.69961 9.07481 5.54961 10.4998 6.82461 12.4498C7.42461 13.4998 7.42461 15.1498 6.74961 16.7248C5.99961 18.4498 4.79961 19.6498 3.52461 19.8748C2.92461 20.0248 1.04961 20.3248 0.674609 22.4248C0.599609 22.6498 0.599609 22.7998 0.599609 23.1748V25.1248C0.824609 27.5248 2.62461 27.8998 3.44961 28.0498C5.54961 28.4998 7.19961 31.3498 7.27461 33.5998C7.27461 34.3498 7.12461 34.9498 6.82461 35.4748C5.92461 36.9748 5.39961 38.5498 7.19961 40.3498C8.39961 41.4748 9.22461 42.2248 10.4246 42.2248C11.1746 42.2248 11.8496 41.9248 12.6746 41.2498C12.9746 41.0248 13.4246 40.8748 13.8746 40.7998H13.9496C14.0996 40.7998 14.1746 40.7248 14.2496 40.7248C16.3496 40.7998 19.7246 42.8248 20.0996 44.1748C20.3246 45.2248 20.9246 47.3248 23.5496 47.3248H24.5246C27.2246 47.3248 27.7496 45.1498 27.9746 44.1748C28.2746 42.8248 31.6496 40.7998 33.8246 40.7248C33.8996 40.7248 34.0496 40.7998 34.1996 40.7998C34.6496 40.9498 35.0996 41.0248 35.4746 41.3248C36.2246 41.9248 36.8996 42.2248 37.6496 42.2248C38.8496 42.2248 39.5996 41.5498 40.7996 40.4248C42.3746 38.9248 42.5246 37.4998 41.2496 35.4748C40.6496 34.4998 40.7246 32.9248 41.3996 31.2748C42.1496 29.5498 43.3496 28.3498 44.6996 28.0498C46.5746 27.6748 47.3996 26.6998 47.5496 24.7498L47.3246 22.7998ZM44.1746 26.2498C42.2996 26.6248 40.5746 28.2748 39.5996 30.5248C38.6996 32.6998 38.6996 34.8748 39.5996 36.3748C40.4246 37.7998 40.3496 38.1748 39.4496 39.0748C38.3246 40.1248 37.9496 40.3498 37.5746 40.3498C37.2746 40.3498 36.9746 40.1998 36.5996 39.8998C35.9246 39.3748 35.1746 39.1498 34.6496 38.9998C34.4996 38.9248 34.4246 38.9248 34.3496 38.9248L34.0496 38.8498H33.8996C31.1996 38.8498 26.7746 41.3248 26.1746 43.7248C25.8746 45.0748 25.5746 45.5248 24.5246 45.5248H24.2996H23.5496C22.5746 45.5248 22.2746 45.1498 21.8996 43.7248C21.2996 41.3248 16.8746 38.8498 14.1746 38.8498H13.9496L13.7996 38.9248C13.7246 38.9248 13.6496 38.9998 13.4996 38.9998H13.4246C12.8996 39.1498 12.1496 39.2998 11.5496 39.8248C11.0996 40.1998 10.7996 40.3498 10.4996 40.3498C10.0496 40.3498 9.59961 39.9748 8.54961 38.9998C7.64961 38.1748 7.64961 37.7248 8.39961 36.4498C8.92461 35.6248 9.14961 34.6498 9.14961 33.5248C9.07461 30.5248 6.97461 26.8498 3.89961 26.2498C2.92461 26.0248 2.62461 25.7998 2.54961 25.0498V23.1748C2.54961 22.9498 2.54961 22.8748 2.62461 22.7248C2.77461 22.0498 3.14961 21.8248 3.97461 21.6748C5.84961 21.2998 7.49961 19.7248 8.47461 17.3998C9.44961 15.2248 9.37461 12.9748 8.47461 11.4748C7.64961 10.1998 7.79961 9.6748 8.62461 8.8498C9.59961 7.94981 10.0496 7.57481 10.4246 7.57481C10.6496 7.57481 11.0246 7.6498 11.6246 8.1748C12.2246 8.6248 12.9746 8.8498 13.4996 8.99981C13.5746 8.99981 13.6496 9.07481 13.7996 9.07481L14.2496 9.14981H14.3246C16.4246 9.14981 18.9746 7.7998 20.3996 6.5248C21.2246 5.7748 21.7496 5.0248 21.8996 4.2748C22.1996 2.9248 22.4996 2.5498 23.5496 2.5498H23.7746H24.4496C25.4246 2.5498 25.7246 2.9248 26.0996 4.2748C26.6996 6.6748 31.0496 9.14981 33.8246 9.14981H33.8996L34.5746 8.99981C35.0996 8.8498 35.8496 8.6248 36.5246 8.0998C36.8996 7.79981 37.2746 7.64981 37.4996 7.64981C37.9496 7.64981 38.3246 7.94981 39.5246 9.07481C40.3496 9.89981 40.3496 10.3498 39.5246 11.6248C38.6246 13.1248 38.6246 15.3748 39.5996 17.5498C40.5746 19.7998 42.2996 21.3748 44.1746 21.8248C45.0746 21.9748 45.4496 22.1998 45.5246 23.0248V24.8248C45.4496 25.7998 45.2246 26.0248 44.1746 26.2498Z" fill="#092C4C" stroke="white" stroke-width="0.6" mask="url(#path-1-inside-1_14984_3101)"/>
<path d="M20.3082 35.4355L20.3497 35.4979L20.422 35.5176C21.2568 35.7452 22.165 35.8966 23.061 36.0459L23.0667 36.0469L23.2996 36.0857V35.8496V30.5246V30.3144L23.0896 30.3249C21.5842 30.4001 20.0683 30.551 18.6237 30.9312L18.4262 30.9832L18.4823 31.1796C18.9351 32.7645 19.5421 34.2864 20.3082 35.4355ZM23.2996 12.2246V12.0072L23.083 12.0253C22.1749 12.101 21.2522 12.2532 20.4753 12.5639L20.4209 12.5857L20.3869 12.6334C19.6185 13.7091 19.0106 15.1581 18.5573 16.7447L18.502 16.9384L18.6961 16.9923C20.0675 17.3733 21.585 17.5241 23.0896 17.5994L23.2996 17.6099V17.3996V12.2246ZM23.0996 23.2996H23.2996V23.0996V19.1996V18.9996H23.0996C21.4682 18.9996 19.909 18.7772 18.3459 18.405L18.1462 18.3575L18.1039 18.5584C17.8009 19.9975 17.6501 21.509 17.5748 23.0901L17.5649 23.2996H17.7746H23.0996ZM23.2996 24.8996V24.6996H23.0996H17.7746H17.5746V24.8996C17.5746 26.4122 17.7258 27.9269 18.0294 29.293L18.0734 29.4912L18.2709 29.4442C19.8331 29.0722 21.4706 28.8489 23.1087 28.7744L23.2996 28.7657V28.5746V24.8996ZM24.8996 24.6996H24.6996V24.8996V28.5746V28.7661L24.8909 28.7744C26.6032 28.8489 28.1656 29.0721 29.7283 29.4442L29.9367 29.4938L29.9719 29.2825C30.1984 27.9236 30.3491 26.4158 30.4244 24.9096L30.4349 24.6996H30.2246H24.8996ZM24.6996 23.0996V23.2996H24.8996H30.2246H30.4344L30.4244 23.0901C30.3491 21.509 30.1983 19.9975 29.8953 18.5584L29.8545 18.3647L29.6604 18.4035C28.1687 18.7018 26.5289 18.9253 24.8905 18.9998L24.6996 19.0085V19.1996V23.0996ZM29.3658 16.9953L29.5759 16.9511L29.5169 16.7447C29.0631 15.1563 28.4568 13.7145 27.7711 12.5717L27.7298 12.5028L27.6522 12.4817C26.8139 12.253 25.9017 12.1012 24.9912 12.0253L24.7746 12.0072V12.2246V17.3996V17.6099L24.9846 17.5994C26.4983 17.5237 27.9343 17.2967 29.3658 16.9953ZM15.8996 23.2996H16.0911L16.0994 23.1083C16.1743 21.3867 16.3237 19.678 16.6936 18.1981L16.736 18.0288L16.5739 17.9639C15.8231 17.6636 15.0767 17.365 14.4058 17.0668L14.258 17.0011L14.1629 17.132C12.9405 18.8127 12.1776 20.8738 12.0251 23.0858L12.0103 23.2996H12.2246H15.8996ZM16.0994 24.8905L16.0907 24.6996H15.8996H12.1496H11.9353L11.9501 24.9134C12.1027 27.1268 12.8661 29.1106 14.0094 30.7873L14.1078 30.9316L14.2641 30.8535C15.0045 30.4833 15.7438 30.1877 16.4821 29.9662L16.6548 29.9144L16.6211 29.7372C16.3235 28.1748 16.1742 26.535 16.0994 24.8905ZM24.9096 30.2499L24.6996 30.2394V30.4496V35.6996V35.8996H24.8996C25.8293 35.8996 26.7527 35.6674 27.5772 35.4426L27.6495 35.4229L27.691 35.3606C28.4563 34.2127 29.0637 32.7663 29.5176 31.1022L29.5707 30.9076L29.3755 30.8562C27.9309 30.476 26.415 30.3251 24.9096 30.2499ZM32.0996 24.6996H31.9081L31.8998 24.8909C31.8251 26.6101 31.6759 28.1709 31.305 29.7283L31.2602 29.9166L31.447 29.9676C32.2581 30.1888 32.9929 30.483 33.6525 30.8494L33.8154 30.9399L33.9171 30.7839C35.0575 29.0353 35.8213 27.0531 35.9741 24.9139L35.9894 24.6996H35.7746H32.0996ZM31.8998 23.1083L32.0996 23.104V23.2246H35.7746H35.9889L35.9741 23.0108C35.8216 20.7988 35.0587 18.7377 33.8364 17.057L33.7322 16.9138L33.5775 16.9998C32.9173 17.3666 32.181 17.6614 31.4421 17.883L31.2613 17.9373L31.305 18.1209C31.6756 19.6774 31.825 21.3874 31.8998 23.1083ZM32.5641 15.9285L32.8122 15.8044L32.616 15.6082C31.9305 14.9226 31.169 14.3135 30.332 13.7809L29.8084 13.4477L30.0389 14.0239C30.3394 14.7752 30.6351 15.5149 30.8567 16.3272L30.9099 16.5225L31.1046 16.4669C31.634 16.3156 32.0977 16.1617 32.5641 15.9285ZM17.8853 14.0239L18.1344 13.4011L17.5849 13.7858C16.8276 14.3159 16.0713 14.921 15.3158 15.601L15.0605 15.8307L15.3864 15.9393C15.6062 16.0126 15.8456 16.1046 16.0903 16.1988L16.0929 16.1998C16.3348 16.2928 16.5821 16.3879 16.8114 16.4643L17.0119 16.5312L17.0676 16.3272C17.2891 15.5149 17.5848 14.7752 17.8853 14.0239ZM15.3602 31.9957L15.112 32.1198L15.3082 32.316C15.9874 32.9953 16.7493 33.6819 17.5922 34.2183L18.1158 34.5515L17.8853 33.9753C17.5869 33.2293 17.2905 32.4137 17.0686 31.5261L17.0082 31.2842L16.7852 31.3957C16.5703 31.5031 16.3358 31.5935 16.0903 31.6879L16.0857 31.6897C15.8451 31.7823 15.5938 31.8789 15.3602 31.9957ZM30.1139 33.9753L29.8834 34.5515L30.407 34.2183C31.2499 33.6819 32.0118 32.9953 32.691 32.316L32.8872 32.1198L32.6391 31.9957L32.6327 31.9925C32.1864 31.7694 31.7224 31.5374 31.1796 31.3823L30.9807 31.3255L30.9306 31.5261C30.7087 32.4137 30.4123 33.2293 30.1139 33.9753ZM10.5496 23.9996C10.5496 16.6094 16.5358 10.5496 23.9996 10.5496C31.4634 10.5496 37.4496 16.6094 37.4496 23.9996C37.4496 31.3899 31.4634 37.4496 23.9996 37.4496C16.6094 37.4496 10.5496 31.4634 10.5496 23.9996Z" fill="#FF9B00" stroke="white" stroke-width="0.4"/>
</g>
<defs>
<clipPath id="clip0_14984_3101">
<rect width="48" height="48" fill="white"/>
</clipPath>
</defs>
</svg>
