<svg width="49" height="49" viewBox="0 0 49 49" fill="none" xmlns="http://www.w3.org/2000/svg">
<g clip-path="url(#clip0_14984_3084)">
<path d="M43.6406 42.4632V42.4629V31.8486C43.6406 31.2988 44.0863 30.8532 44.6361 30.8532C45.1859 30.8532 45.6315 31.2988 45.6315 31.8486V42.4632C45.6279 45.6525 43.0434 48.237 39.8541 48.2406H6.31145C3.12215 48.237 0.537659 45.6526 0.533984 42.4633V11.3108C0.537659 8.1216 3.12209 5.53717 6.31134 5.5335H16.9255C17.4753 5.5335 17.921 5.97952 17.921 6.52894C17.921 7.07879 17.4753 7.52439 16.9255 7.52439H6.31123L6.31099 7.52439C4.22074 7.52686 2.52735 9.22075 2.52488 11.3105V11.3107V42.4629L2.52488 42.4632C2.52735 44.5533 4.22072 46.2473 6.31104 46.2493H6.31123H39.8543H39.8545C41.9448 46.2473 43.6382 44.5533 43.6406 42.4632Z" fill="#092C4C" stroke="white" stroke-width="0.4"/>
<path d="M13.5039 34.2904L13.5039 34.2905C13.4079 34.636 13.5053 35.0061 13.7589 35.2602C14.0129 35.5138 14.3831 35.6113 14.7288 35.5157C14.7288 35.5157 14.7288 35.5157 14.7288 35.5157L24.8541 32.7106C25.0198 32.6647 25.1707 32.5768 25.2924 32.4551L46.6193 11.1272L13.5039 34.2904ZM13.5039 34.2904L16.3086 24.165C16.3545 23.9994 16.4423 23.8485 16.5641 23.7268L37.8916 2.39923C39.9144 0.376428 43.1939 0.376428 45.2167 2.39923M13.5039 34.2904L45.2167 2.39923M45.2167 2.39923L46.6193 3.80186M45.2167 2.39923L46.6193 3.80186M46.6193 3.80186L46.6195 3.80202C48.639 5.82622 48.639 9.10289 46.6195 11.1271L46.6193 3.80186ZM18.886 24.221L18.7446 24.3624L18.886 24.5038L24.5149 30.1332L24.6563 30.2746L24.7977 30.1332L42.2531 12.6778L42.3946 12.5363L42.2531 12.3949L36.6238 6.76556L36.4824 6.62414L36.3409 6.76556L18.886 24.221ZM18.0444 26.4774L17.8018 26.2348L17.7102 26.5654L15.9866 32.7869L15.8923 33.1273L16.2327 33.033L22.4537 31.3094L22.7843 31.2178L22.5418 30.9753L18.0444 26.4774ZM45.2119 9.71949L45.212 9.71932C46.455 8.47334 46.455 6.45622 45.2121 5.20981L45.2118 5.20959L43.8086 3.80683C42.5635 2.56176 40.5447 2.56176 39.2997 3.80683L38.0314 5.07463L37.8899 5.21605L38.0314 5.3575L43.6612 10.9873L43.8026 11.1287L43.944 10.9873L45.2119 9.71949Z" fill="#FF9B00" stroke="white" stroke-width="0.4"/>
</g>
<defs>
<clipPath id="clip0_14984_3084">
<rect width="48" height="48" fill="white" transform="translate(0.333984 0.5)"/>
</clipPath>
</defs>
</svg>
