<svg width="48" height="48" viewBox="0 0 48 48" fill="none" xmlns="http://www.w3.org/2000/svg">
<path d="M34.0213 21.2802C33.6141 18.9121 32.3672 16.7557 30.5103 15.2076C30.299 15.0314 30.0001 15.0058 29.7619 15.1433L28.2623 16.0092C28.157 15.9449 28.0491 15.8825 27.9375 15.8215V14.0841C27.9375 13.8091 27.7662 13.5633 27.5083 13.4682C25.2597 12.6393 22.7403 12.6393 20.4917 13.4682C20.2338 13.5633 20.0625 13.8091 20.0625 14.0841V15.8212C19.9513 15.8822 19.8433 15.9445 19.7376 16.0089L18.2381 15.1429C17.9999 15.0055 17.701 15.031 17.4897 15.2072C15.6328 16.7553 14.3859 18.9118 13.9787 21.2799C13.9321 21.5506 14.0591 21.8216 14.297 21.9591L15.7992 22.8273C15.7975 22.889 15.7969 22.9517 15.7969 23.0156C15.7969 23.0796 15.7975 23.1423 15.7992 23.2033L14.297 24.0716C14.0591 24.209 13.9321 24.4801 13.9787 24.7508C14.3859 27.1189 15.6328 29.2753 17.4897 30.8234C17.701 30.9996 17.9999 31.0252 18.2381 30.8877L19.738 30.0218C19.8433 30.0861 19.9512 30.1484 20.0625 30.2095V31.9466C20.0625 32.2215 20.2338 32.4673 20.492 32.5625C21.6162 32.9772 22.7968 33.1875 24 33.1875C25.2032 33.1875 26.3838 32.9772 27.508 32.5631C27.7659 32.468 27.9375 32.2222 27.9375 31.9472V30.2101C28.0487 30.1491 28.1567 30.0868 28.262 30.0224L29.7619 30.8884C30.0001 31.0258 30.299 31.0002 30.5103 30.824C32.3672 29.2759 33.614 27.1195 34.0212 24.7514C34.0678 24.4807 33.9409 24.2097 33.703 24.0722L32.2008 23.204C32.2025 23.1423 32.2031 23.0796 32.2031 23.0156C32.2031 22.9517 32.2024 22.889 32.2008 22.828L33.703 21.9597C33.9409 21.8219 34.0679 21.5509 34.0213 21.2802ZM31.1955 21.8931C30.9743 22.0208 30.8473 22.2652 30.8703 22.5198C30.8837 22.6731 30.8906 22.8352 30.8906 23.0156C30.8906 23.1961 30.8837 23.3582 30.8703 23.5118C30.8476 23.7661 30.9743 24.0108 31.1955 24.1385L32.6392 24.9729C32.2464 26.7123 31.3283 28.2988 30.0106 29.5165L28.5704 28.685C28.3516 28.5587 28.0789 28.5692 27.8702 28.7125C27.6028 28.8966 27.3157 29.063 26.9922 29.2218C26.7674 29.3321 26.6247 29.5608 26.6247 29.8111V31.4773C24.9282 32.0053 23.0711 32.0053 21.3747 31.4773V29.8111C21.3747 29.5608 21.2319 29.332 21.0072 29.2218C20.6836 29.0633 20.3965 28.8966 20.1291 28.7125C19.9204 28.5688 19.6481 28.5583 19.4289 28.685L17.9887 29.5165C16.671 28.2988 15.7532 26.7123 15.3601 24.9729L16.8039 24.1385C17.025 24.0108 17.152 23.7664 17.129 23.5118C17.1162 23.3582 17.1093 23.1961 17.1093 23.0156C17.1093 22.8352 17.1162 22.6731 17.1297 22.5195C17.1523 22.2652 17.0257 22.0204 16.8045 21.8928L15.3608 21.0584C15.7535 19.319 16.6716 17.7325 17.9894 16.5148L19.4295 17.3463C19.6487 17.4726 19.9214 17.4621 20.1297 17.3187C20.3968 17.1346 20.6839 16.9683 21.0078 16.8095C21.2322 16.6992 21.375 16.4705 21.375 16.2202V14.5539C23.0711 14.026 24.9289 14.026 26.625 14.5539V16.2202C26.625 16.4705 26.7677 16.6992 26.9925 16.8095C27.3163 16.9683 27.6034 17.1346 27.8705 17.3187C28.0792 17.4624 28.3516 17.4729 28.5708 17.3463L30.0109 16.5148C31.3287 17.7325 32.2464 19.319 32.6395 21.0584L31.1955 21.8931ZM8.9791 30.3925C9.636 31.7188 10.4648 32.9549 11.443 34.0662C11.6822 34.3382 11.6559 34.753 11.3839 34.9925C11.2592 35.1024 11.1047 35.1562 10.9505 35.1562C10.7684 35.1562 10.5876 35.0811 10.4576 34.9335C9.40369 33.7358 8.51053 32.4039 7.80277 30.9753C7.642 30.6504 7.77488 30.257 8.09972 30.0959C8.42456 29.9348 8.81831 30.0677 8.9791 30.3925ZM10.203 28.2738C10.0734 27.9352 10.2427 27.5559 10.5813 27.4263C10.92 27.297 11.2993 27.466 11.4289 27.8046C12.3791 30.2872 14.028 32.4177 16.1978 33.9658C16.4928 34.1765 16.5614 34.5863 16.3511 34.8813C16.2228 35.0608 16.021 35.1562 15.8162 35.1562C15.6843 35.1562 15.5511 35.1165 15.4356 35.0342C13.0551 33.3358 11.2455 30.9983 10.203 28.2738ZM24 19.4063C22.0099 19.4063 20.3906 21.0256 20.3906 23.0156C20.3906 25.0057 22.0099 26.625 24 26.625C25.9901 26.625 27.6094 25.0057 27.6094 23.0156C27.6094 21.0256 25.9901 19.4063 24 19.4063ZM24 25.3125C22.7334 25.3125 21.7031 24.2822 21.7031 23.0156C21.7031 21.7491 22.7334 20.7188 24 20.7188C25.2666 20.7188 26.2969 21.7491 26.2969 23.0156C26.2969 24.2822 25.2666 25.3125 24 25.3125ZM45 38.7656C45 38.9497 44.9229 39.1253 44.7874 39.2496L40.8499 42.859C40.7262 42.9719 40.5674 43.0312 40.4062 43.0312C40.317 43.0312 40.2271 43.0129 40.1421 42.9758C39.9039 42.8708 39.75 42.6352 39.75 42.375V41.0625H32.8594C32.4971 41.0625 32.2031 40.7685 32.2031 40.4062C32.2031 40.044 32.4971 39.75 32.8594 39.75H40.4062C40.7685 39.75 41.0625 40.044 41.0625 40.4062V40.8833L43.3725 38.7656L41.0625 36.6479V37.125C41.0625 37.4873 40.7685 37.7813 40.4062 37.7813H38.1094C37.7471 37.7813 37.4531 37.4873 37.4531 37.125C37.4531 36.7628 37.7471 36.4688 38.1094 36.4688H39.75V35.1563C39.75 34.8961 39.9039 34.6605 40.1421 34.5555C40.3803 34.4511 40.6579 34.4967 40.8499 34.6723L44.7874 38.2817C44.9229 38.406 45 38.5816 45 38.7656ZM4.15664 23.4592C3.98077 23.2673 3.93516 22.9897 4.03984 22.7515C4.14484 22.5133 4.38043 22.3594 4.64063 22.3594H5.96888C5.98168 22.0034 6.00137 21.6487 6.03516 21.3018C6.45516 16.8584 8.51218 12.7391 11.8275 9.70491C15.1639 6.65073 19.487 4.96875 24 4.96875C30.9169 4.96875 37.1234 8.83406 40.1972 15.0566C40.3577 15.3815 40.2245 15.7749 39.8996 15.9357C39.5745 16.0961 39.181 15.9629 39.0206 15.6381C36.1692 9.86668 30.4139 6.28126 24 6.28126C15.4619 6.28126 8.14434 12.934 7.34142 21.4269C7.29121 21.9463 7.26563 22.4805 7.26563 23.0156C7.26563 23.3779 6.97163 23.6719 6.60937 23.6719H6.13228L8.25 25.9819L10.3677 23.6719H9.89063C9.52837 23.6719 9.23437 23.3779 9.23437 23.0156C9.23437 22.0962 9.321 21.1719 9.49195 20.2686C10.8077 13.3044 16.9092 8.25001 24 8.25001C30.0788 8.25001 35.6235 12.071 37.797 17.7578C37.9263 18.0964 37.7566 18.4757 37.4183 18.6053C37.0797 18.7349 36.7004 18.5649 36.5711 18.2266C34.5906 13.0442 29.5384 9.56251 24 9.56251C17.5395 9.56251 11.9805 14.1677 10.7815 20.5124C10.6663 21.1207 10.5938 21.7396 10.5633 22.3594H11.8594C12.1196 22.3594 12.3552 22.5133 12.4602 22.7512C12.5648 22.9897 12.5192 23.267 12.3434 23.4589L8.73398 27.3964C8.60963 27.5323 8.43408 27.6094 8.25 27.6094C8.06592 27.6094 7.89037 27.5323 7.76602 27.3967L4.15664 23.4592ZM24 41.0625C28.513 41.0625 32.8361 39.3805 36.1728 36.3263C39.4881 33.2918 41.5452 29.1729 41.9652 24.7294C41.999 24.3823 42.0187 24.0279 42.0314 23.6719H43.3594C43.6196 23.6719 43.8552 23.518 43.9602 23.2801C44.0648 23.0416 44.0192 22.7643 43.8433 22.5723L40.234 18.6348C39.9852 18.3638 39.5151 18.3638 39.2663 18.6348L35.657 22.5723C35.4811 22.7643 35.4355 23.0419 35.5401 23.2801C35.6448 23.5183 35.8807 23.6719 36.1409 23.6719H37.4367C37.4062 24.2917 37.334 24.9102 37.2185 25.5189C36.0195 31.8635 30.4605 36.4688 24 36.4688H4.96874C3.88298 36.4688 3 37.3517 3 38.4375V39.0938C3 40.1795 3.88298 41.0625 4.96874 41.0625H24ZM4.3125 39.0938V38.4375C4.3125 38.0756 4.60682 37.7812 4.96876 37.7812H24C31.0908 37.7812 37.1923 32.7268 38.508 25.7627C38.679 24.8593 38.7656 23.935 38.7656 23.0156C38.7656 22.6534 38.4716 22.3594 38.1094 22.3594H37.6323L39.75 20.0494L41.8677 22.3594H41.3906C41.0283 22.3594 40.7343 22.6534 40.7343 23.0156C40.7343 23.5508 40.7088 24.085 40.6586 24.6044C39.8557 33.0973 32.5381 39.75 24 39.75H4.96874C4.60682 39.75 4.3125 39.4557 4.3125 39.0938Z" fill="#092C4C"/>
<g clip-path="url(#clip0_14960_7655)">
<path d="M34.0213 21.2802C33.6141 18.9121 32.3672 16.7557 30.5103 15.2076C30.299 15.0314 30.0001 15.0058 29.7619 15.1433L28.2623 16.0092C28.157 15.9449 28.0491 15.8825 27.9375 15.8215V14.0841C27.9375 13.8091 27.7662 13.5633 27.5083 13.4682C25.2597 12.6393 22.7403 12.6393 20.4917 13.4682C20.2338 13.5633 20.0625 13.8091 20.0625 14.0841V15.8212C19.9513 15.8822 19.8433 15.9445 19.7376 16.0089L18.2381 15.1429C17.9999 15.0055 17.701 15.031 17.4897 15.2072C15.6328 16.7553 14.3859 18.9118 13.9787 21.2799C13.9321 21.5506 14.0591 21.8216 14.297 21.9591L15.7992 22.8273C15.7975 22.889 15.7969 22.9517 15.7969 23.0156C15.7969 23.0796 15.7975 23.1423 15.7992 23.2033L14.297 24.0716C14.0591 24.209 13.9321 24.4801 13.9787 24.7508C14.3859 27.1189 15.6328 29.2753 17.4897 30.8234C17.701 30.9996 17.9999 31.0252 18.2381 30.8877L19.738 30.0218C19.8433 30.0861 19.9512 30.1484 20.0625 30.2095V31.9466C20.0625 32.2215 20.2338 32.4673 20.492 32.5625C21.6162 32.9772 22.7968 33.1875 24 33.1875C25.2032 33.1875 26.3838 32.9772 27.508 32.5631C27.7659 32.468 27.9375 32.2222 27.9375 31.9472V30.2101C28.0487 30.1491 28.1567 30.0868 28.262 30.0224L29.7619 30.8884C30.0001 31.0258 30.299 31.0002 30.5103 30.824C32.3672 29.2759 33.614 27.1195 34.0212 24.7514C34.0678 24.4807 33.9409 24.2097 33.703 24.0722L32.2008 23.204C32.2025 23.1423 32.2031 23.0796 32.2031 23.0156C32.2031 22.9517 32.2024 22.889 32.2008 22.828L33.703 21.9597C33.9409 21.8219 34.0679 21.5509 34.0213 21.2802ZM31.1955 21.8931C30.9743 22.0208 30.8473 22.2652 30.8703 22.5198C30.8837 22.6731 30.8906 22.8352 30.8906 23.0156C30.8906 23.1961 30.8837 23.3582 30.8703 23.5118C30.8476 23.7661 30.9743 24.0108 31.1955 24.1385L32.6392 24.9729C32.2464 26.7123 31.3283 28.2988 30.0106 29.5165L28.5704 28.685C28.3516 28.5587 28.0789 28.5692 27.8702 28.7125C27.6028 28.8966 27.3157 29.063 26.9922 29.2218C26.7674 29.3321 26.6247 29.5608 26.6247 29.8111V31.4773C24.9282 32.0053 23.0711 32.0053 21.3747 31.4773V29.8111C21.3747 29.5608 21.2319 29.332 21.0072 29.2218C20.6836 29.0633 20.3965 28.8966 20.1291 28.7125C19.9204 28.5688 19.6481 28.5583 19.4289 28.685L17.9887 29.5165C16.671 28.2988 15.7532 26.7123 15.3601 24.9729L16.8039 24.1385C17.025 24.0108 17.152 23.7664 17.129 23.5118C17.1162 23.3582 17.1093 23.1961 17.1093 23.0156C17.1093 22.8352 17.1162 22.6731 17.1297 22.5195C17.1523 22.2652 17.0257 22.0204 16.8045 21.8928L15.3608 21.0584C15.7535 19.319 16.6716 17.7325 17.9894 16.5148L19.4295 17.3463C19.6487 17.4726 19.9214 17.4621 20.1297 17.3187C20.3968 17.1346 20.6839 16.9683 21.0078 16.8095C21.2322 16.6992 21.375 16.4705 21.375 16.2202V14.5539C23.0711 14.026 24.9289 14.026 26.625 14.5539V16.2202C26.625 16.4705 26.7677 16.6992 26.9925 16.8095C27.3163 16.9683 27.6034 17.1346 27.8705 17.3187C28.0792 17.4624 28.3516 17.4729 28.5708 17.3463L30.0109 16.5148C31.3287 17.7325 32.2464 19.319 32.6395 21.0584L31.1955 21.8931ZM8.9791 30.3925C9.636 31.7188 10.4648 32.9549 11.443 34.0662C11.6822 34.3382 11.6559 34.753 11.3839 34.9925C11.2592 35.1024 11.1047 35.1562 10.9505 35.1562C10.7684 35.1562 10.5876 35.0811 10.4576 34.9335C9.40369 33.7358 8.51053 32.4039 7.80277 30.9753C7.642 30.6504 7.77488 30.257 8.09972 30.0959C8.42456 29.9348 8.81831 30.0677 8.9791 30.3925ZM10.203 28.2738C10.0734 27.9352 10.2427 27.5559 10.5813 27.4263C10.92 27.297 11.2993 27.466 11.4289 27.8046C12.3791 30.2872 14.028 32.4177 16.1978 33.9658C16.4928 34.1765 16.5614 34.5863 16.3511 34.8813C16.2228 35.0608 16.021 35.1562 15.8162 35.1562C15.6843 35.1562 15.5511 35.1165 15.4356 35.0342C13.0551 33.3358 11.2455 30.9983 10.203 28.2738ZM24 19.4063C22.0099 19.4063 20.3906 21.0256 20.3906 23.0156C20.3906 25.0057 22.0099 26.625 24 26.625C25.9901 26.625 27.6094 25.0057 27.6094 23.0156C27.6094 21.0256 25.9901 19.4063 24 19.4063ZM24 25.3125C22.7334 25.3125 21.7031 24.2822 21.7031 23.0156C21.7031 21.7491 22.7334 20.7188 24 20.7188C25.2666 20.7188 26.2969 21.7491 26.2969 23.0156C26.2969 24.2822 25.2666 25.3125 24 25.3125ZM45 38.7656C45 38.9497 44.9229 39.1253 44.7874 39.2496L40.8499 42.859C40.7262 42.9719 40.5674 43.0312 40.4062 43.0312C40.317 43.0312 40.2271 43.0129 40.1421 42.9758C39.9039 42.8708 39.75 42.6352 39.75 42.375V41.0625H32.8594C32.4971 41.0625 32.2031 40.7685 32.2031 40.4062C32.2031 40.044 32.4971 39.75 32.8594 39.75H40.4062C40.7685 39.75 41.0625 40.044 41.0625 40.4062V40.8833L43.3725 38.7656L41.0625 36.6479V37.125C41.0625 37.4873 40.7685 37.7813 40.4062 37.7813H38.1094C37.7471 37.7813 37.4531 37.4873 37.4531 37.125C37.4531 36.7628 37.7471 36.4688 38.1094 36.4688H39.75V35.1563C39.75 34.8961 39.9039 34.6605 40.1421 34.5555C40.3803 34.4511 40.6579 34.4967 40.8499 34.6723L44.7874 38.2817C44.9229 38.406 45 38.5816 45 38.7656ZM4.15664 23.4592C3.98077 23.2673 3.93516 22.9897 4.03984 22.7515C4.14484 22.5133 4.38043 22.3594 4.64063 22.3594H5.96888C5.98168 22.0034 6.00137 21.6487 6.03516 21.3018C6.45516 16.8584 8.51218 12.7391 11.8275 9.70491C15.1639 6.65073 19.487 4.96875 24 4.96875C30.9169 4.96875 37.1234 8.83406 40.1972 15.0566C40.3577 15.3815 40.2245 15.7749 39.8996 15.9357C39.5745 16.0961 39.181 15.9629 39.0206 15.6381C36.1692 9.86668 30.4139 6.28126 24 6.28126C15.4619 6.28126 8.14434 12.934 7.34142 21.4269C7.29121 21.9463 7.26563 22.4805 7.26563 23.0156C7.26563 23.3779 6.97163 23.6719 6.60937 23.6719H6.13228L8.25 25.9819L10.3677 23.6719H9.89063C9.52837 23.6719 9.23437 23.3779 9.23437 23.0156C9.23437 22.0962 9.321 21.1719 9.49195 20.2686C10.8077 13.3044 16.9092 8.25001 24 8.25001C30.0788 8.25001 35.6235 12.071 37.797 17.7578C37.9263 18.0964 37.7566 18.4757 37.4183 18.6053C37.0797 18.7349 36.7004 18.5649 36.5711 18.2266C34.5906 13.0442 29.5384 9.56251 24 9.56251C17.5395 9.56251 11.9805 14.1677 10.7815 20.5124C10.6663 21.1207 10.5938 21.7396 10.5633 22.3594H11.8594C12.1196 22.3594 12.3552 22.5133 12.4602 22.7512C12.5648 22.9897 12.5192 23.267 12.3434 23.4589L8.73398 27.3964C8.60963 27.5323 8.43408 27.6094 8.25 27.6094C8.06592 27.6094 7.89037 27.5323 7.76602 27.3967L4.15664 23.4592ZM24 41.0625C28.513 41.0625 32.8361 39.3805 36.1728 36.3263C39.4881 33.2918 41.5452 29.1729 41.9652 24.7294C41.999 24.3823 42.0187 24.0279 42.0314 23.6719H43.3594C43.6196 23.6719 43.8552 23.518 43.9602 23.2801C44.0648 23.0416 44.0192 22.7643 43.8433 22.5723L40.234 18.6348C39.9852 18.3638 39.5151 18.3638 39.2663 18.6348L35.657 22.5723C35.4811 22.7643 35.4355 23.0419 35.5401 23.2801C35.6448 23.5183 35.8807 23.6719 36.1409 23.6719H37.4367C37.4062 24.2917 37.334 24.9102 37.2185 25.5189C36.0195 31.8635 30.4605 36.4688 24 36.4688H4.96874C3.88298 36.4688 3 37.3517 3 38.4375V39.0938C3 40.1795 3.88298 41.0625 4.96874 41.0625H24ZM4.3125 39.0938V38.4375C4.3125 38.0756 4.60682 37.7812 4.96876 37.7812H24C31.0908 37.7812 37.1923 32.7268 38.508 25.7627C38.679 24.8593 38.7656 23.935 38.7656 23.0156C38.7656 22.6534 38.4716 22.3594 38.1094 22.3594H37.6323L39.75 20.0494L41.8677 22.3594H41.3906C41.0283 22.3594 40.7343 22.6534 40.7343 23.0156C40.7343 23.5508 40.7088 24.085 40.6586 24.6044C39.8557 33.0973 32.5381 39.75 24 39.75H4.96874C4.60682 39.75 4.3125 39.4557 4.3125 39.0938Z" fill="#FF9B00"/>
</g>
<defs>
<clipPath id="clip0_14960_7655">
<rect x="13" y="11.5" width="22" height="22" rx="11" fill="white"/>
</clipPath>
</defs>
</svg>
