<svg width="81" height="80" viewBox="0 0 81 80" fill="none" xmlns="http://www.w3.org/2000/svg">
<path d="M48.4776 31.1315C48.0094 31.1045 47.5409 31.1768 47.1026 31.3438C46.6644 31.5107 46.2664 31.7685 45.9349 32.1001L37.8844 40.1513L34.6702 36.9378C34.1442 36.418 33.475 36.0671 32.7483 35.9299C32.0217 35.7928 31.2706 35.8755 30.5912 36.1677C29.9119 36.4598 29.3352 36.9481 28.935 37.5699C28.5347 38.1917 28.3291 38.9189 28.3446 39.6582C28.3906 40.599 28.7884 41.4882 29.4591 42.1496L34.9071 47.5982C35.644 48.3739 36.6574 48.8275 37.7269 48.8603C38.7964 48.8931 39.8356 48.5024 40.6187 47.7733L51.1131 37.279C53.3288 35.1628 51.4414 31.1492 48.4776 31.1315ZM49.3455 35.5114L38.8512 46.0058C38.7207 46.1341 38.5644 46.2329 38.3925 46.2958C38.2207 46.3586 38.0375 46.384 37.8551 46.3702C37.4079 46.3443 36.9868 46.1518 36.6746 45.8306L31.2266 40.3814C30.9985 40.1615 30.8613 39.8639 30.8421 39.5476C30.7847 39.202 31.0981 38.8226 31.4049 38.5601C31.624 38.3838 31.9035 38.3002 32.1834 38.3273C32.4634 38.3545 32.7215 38.4902 32.9027 38.7054L37.0006 42.8027C37.1166 42.9188 37.2544 43.0109 37.406 43.0737C37.5577 43.1365 37.7202 43.1689 37.8844 43.1689C38.0485 43.1689 38.211 43.1365 38.3627 43.0737C38.5143 43.0109 38.6521 42.9188 38.7681 42.8027L47.7025 33.8683C48.6661 33.0254 50.1833 34.5514 49.3455 35.5114Z" fill="#FF9B00"/>
<mask id="path-2-inside-1_14961_8017" fill="white">
<path d="M71.4348 32.934L65.1348 32.4866C64.8394 32.4688 64.5555 32.3656 64.3177 32.1894C64.08 32.0131 63.8986 31.7716 63.7957 31.4941C63.5192 30.2344 62.128 28.9066 63.1523 27.6867L67.2869 22.9192C67.9578 22.1406 68.3101 21.1375 68.2734 20.1104C68.2367 19.0833 67.8138 18.1079 67.0892 17.3791L62.8338 13.1231C62.1045 12.399 61.1289 11.9766 60.1019 11.9401C59.0748 11.9037 58.0718 12.2559 57.293 12.9265L52.5262 17.0617C51.3058 18.0787 49.9741 16.7002 48.7188 16.4172C48.4412 16.3139 48.1996 16.1322 48.0233 15.8943C47.8469 15.6564 47.7434 15.3724 47.7252 15.0768L47.2783 8.77875C47.2024 7.7538 46.7424 6.79527 45.9904 6.09472C45.2384 5.39418 44.2497 5.00322 43.2219 5H37.2039C36.1761 5.00322 35.1874 5.39418 34.4354 6.09472C33.6834 6.79527 33.2234 7.7538 33.1475 8.77875L32.7007 15.0763C32.5639 16.6568 30.6151 16.6343 29.544 17.3096C29.2753 17.4317 28.9769 17.4733 28.6851 17.4293C28.3933 17.3853 28.1204 17.2576 27.8997 17.0617L23.1328 12.926C22.3538 12.2557 21.3508 11.9038 20.3239 11.9403C19.2969 11.9769 18.3214 12.3992 17.592 13.1231L13.3366 17.3785C12.612 18.1075 12.1891 19.083 12.1524 20.1102C12.1158 21.1374 12.468 22.1406 13.1389 22.9193L17.2746 27.6874C18.2927 28.9057 16.9129 30.2375 16.6302 31.4942C16.5272 31.7718 16.3455 32.0134 16.1075 32.1897C15.8695 32.3659 15.5854 32.469 15.2898 32.4866L8.99094 32.934C7.96619 33.0103 7.00795 33.4704 6.30759 34.2223C5.60723 34.9743 5.21631 35.9628 5.21289 36.9904V43.0096C5.21631 44.0372 5.60724 45.0257 6.3076 45.7777C7.00796 46.5296 7.96621 46.9897 8.99097 47.066L15.291 47.5134C15.5864 47.5312 15.8703 47.6344 16.108 47.8106C16.3458 47.9869 16.5272 48.2284 16.6301 48.5059C16.9065 49.7656 18.2978 51.0934 17.2735 52.3133L13.1389 57.0808C12.468 57.8594 12.1157 58.8625 12.1524 59.8896C12.189 60.9167 12.612 61.8921 13.3366 62.6209L17.592 66.8769C18.3214 67.6007 19.2969 68.023 20.3239 68.0594C21.3509 68.0958 22.3539 67.7438 23.1328 67.0735L27.8996 62.9383C28.1202 62.7421 28.393 62.6142 28.6849 62.5702C28.9769 62.5262 29.2753 62.568 29.5439 62.6905C30.6117 63.3718 32.5657 63.3395 32.7007 64.9231L33.1474 71.2214C33.2234 72.2463 33.6834 73.2048 34.4354 73.9053C35.1874 74.6059 36.1761 74.9968 37.2039 75H43.2219C44.2497 74.9968 45.2384 74.6058 45.9904 73.9053C46.7424 73.2047 47.2024 72.2462 47.2783 71.2213L47.7251 64.9236C47.7432 64.6279 47.8467 64.3438 48.0231 64.1058C48.1995 63.8678 48.4411 63.6861 48.7188 63.5827C49.9754 63.3069 51.3068 61.9156 52.5261 62.9381L57.293 67.0739C58.0717 67.7447 59.0748 68.0971 60.102 68.0605C61.1291 68.024 62.1047 67.6012 62.8337 66.8768L67.0891 62.6214C67.8138 61.8925 68.2367 60.9169 68.2733 59.8898C68.31 58.8626 67.9577 57.8594 67.2869 57.0806L63.1511 52.3126C62.1331 51.0944 63.5129 49.7624 63.7955 48.5058C63.8986 48.2282 64.0802 47.9866 64.3182 47.8103C64.5562 47.6341 64.8404 47.531 65.136 47.5134L71.4348 47.066C72.4596 46.9897 73.4178 46.5296 74.1182 45.7777C74.8186 45.0257 75.2095 44.0372 75.2129 43.0096V36.9904C75.2095 35.9628 74.8186 34.9743 74.1182 34.2223C73.4178 33.4704 72.4596 33.0103 71.4348 32.934ZM72.7129 43.0096C72.7115 43.4056 72.5607 43.7864 72.2908 44.0761C72.0208 44.3657 71.6515 44.5429 71.2566 44.5721L64.959 45.0195C64.1799 45.0716 63.4327 45.349 62.8083 45.818C62.1839 46.287 61.7093 46.9273 61.4422 47.6611C60.542 49.7209 59.4715 52.0054 61.263 53.9514L65.3973 58.7189C65.6559 59.0188 65.7918 59.4052 65.7778 59.801C65.7638 60.1967 65.6008 60.5726 65.3216 60.8533L61.0662 65.1092C60.785 65.3881 60.4092 65.5507 60.0135 65.5648C59.6178 65.5788 59.2313 65.4432 58.9312 65.1849L54.1643 61.0498C52.2106 59.2508 49.9395 60.3346 47.8741 61.2295C47.1403 61.4966 46.5001 61.9712 46.0311 62.5956C45.5621 63.2199 45.2846 63.967 45.2324 64.7461L44.7857 71.0443C44.7559 71.4392 44.5784 71.8083 44.2886 72.0781C43.9988 72.3479 43.6179 72.4986 43.2219 72.5H37.2039C36.8079 72.4986 36.427 72.3479 36.1372 72.0781C35.8473 71.8083 35.6698 71.4392 35.6401 71.0443L35.1933 64.7455C35.141 63.9665 34.8635 63.2194 34.3945 62.5952C33.9256 61.971 33.2853 61.4964 32.5517 61.2292C31.33 60.8565 30.2222 60.0266 28.9214 60.0531C27.9437 60.0544 26.9992 60.4082 26.2614 61.0498L21.4946 65.1843C21.1945 65.4425 20.8081 65.5782 20.4124 65.5643C20.0167 65.5503 19.6408 65.3879 19.3596 65.1092L15.1042 60.8527C14.825 60.572 14.662 60.1963 14.648 59.8006C14.634 59.405 14.7699 59.0186 15.0285 58.7189L19.1618 53.952C20.9626 51.9959 19.8778 49.7279 18.9834 47.6612C18.7165 46.9275 18.2421 46.2873 17.618 45.8183C16.9939 45.3493 16.2469 45.0718 15.468 45.0196L9.16914 44.5721C8.77427 44.5429 8.40497 44.3657 8.13501 44.0761C7.86505 43.7864 7.71431 43.4056 7.71289 43.0096V36.9904C7.71431 36.5944 7.86505 36.2136 8.13501 35.9239C8.40497 35.6343 8.77427 35.4571 9.16914 35.4279L15.4668 34.9805C16.2459 34.9284 16.9931 34.651 17.6175 34.182C18.2419 33.713 18.7165 33.0727 18.9836 32.3389C19.2216 31.6736 19.4914 31.0193 19.7856 30.3931C20.1128 29.6862 20.2282 28.8997 20.1177 28.1286C20.0072 27.3576 19.6756 26.6351 19.1631 26.0486L15.0286 21.2811C14.7699 20.9812 14.634 20.5948 14.648 20.1991C14.6621 19.8033 14.825 19.4275 15.1043 19.1467L19.3596 14.8907C19.6406 14.6116 20.0165 14.4487 20.4123 14.4347C20.8081 14.4207 21.1946 14.5565 21.4946 14.815L26.2615 18.9502C28.2151 20.7493 30.4865 19.6653 32.5517 18.7705C33.2854 18.5033 33.9257 18.0287 34.3947 17.4044C34.8637 16.7801 35.1411 16.033 35.1934 15.2539L35.6401 8.95565C35.6699 8.5608 35.8474 8.19168 36.1372 7.92188C36.427 7.65209 36.8079 7.50145 37.2039 7.5H43.2219C43.6179 7.50144 43.9988 7.65208 44.2886 7.92189C44.5784 8.19169 44.7559 8.56083 44.7857 8.95569L45.2325 15.2545C45.2848 16.0335 45.5623 16.7806 46.0313 17.4048C46.5002 18.029 47.1404 18.5036 47.8741 18.7708C49.9336 19.6716 52.2193 20.7422 54.1644 18.95L58.9312 14.8157C59.2311 14.557 59.6176 14.4209 60.0134 14.4349C60.4092 14.4488 60.7852 14.6116 61.0662 14.8908L65.3216 19.1473C65.6008 19.428 65.7638 19.8037 65.7778 20.1994C65.7918 20.595 65.6559 20.9814 65.3972 21.2811L61.2639 26.048C59.4631 28.0045 60.548 30.2719 61.4424 32.3388C61.7093 33.0725 62.1837 33.7127 62.8078 34.1817C63.4319 34.6507 64.1789 34.9282 64.9578 34.9804L71.2566 35.4278C71.6515 35.4571 72.0208 35.6342 72.2907 35.9239C72.5607 36.2135 72.7114 36.5944 72.7129 36.9903L72.7129 43.0096Z"/>
</mask>
<path d="M71.4348 32.934L65.1348 32.4866C64.8394 32.4688 64.5555 32.3656 64.3177 32.1894C64.08 32.0131 63.8986 31.7716 63.7957 31.4941C63.5192 30.2344 62.128 28.9066 63.1523 27.6867L67.2869 22.9192C67.9578 22.1406 68.3101 21.1375 68.2734 20.1104C68.2367 19.0833 67.8138 18.1079 67.0892 17.3791L62.8338 13.1231C62.1045 12.399 61.1289 11.9766 60.1019 11.9401C59.0748 11.9037 58.0718 12.2559 57.293 12.9265L52.5262 17.0617C51.3058 18.0787 49.9741 16.7002 48.7188 16.4172C48.4412 16.3139 48.1996 16.1322 48.0233 15.8943C47.8469 15.6564 47.7434 15.3724 47.7252 15.0768L47.2783 8.77875C47.2024 7.7538 46.7424 6.79527 45.9904 6.09472C45.2384 5.39418 44.2497 5.00322 43.2219 5H37.2039C36.1761 5.00322 35.1874 5.39418 34.4354 6.09472C33.6834 6.79527 33.2234 7.7538 33.1475 8.77875L32.7007 15.0763C32.5639 16.6568 30.6151 16.6343 29.544 17.3096C29.2753 17.4317 28.9769 17.4733 28.6851 17.4293C28.3933 17.3853 28.1204 17.2576 27.8997 17.0617L23.1328 12.926C22.3538 12.2557 21.3508 11.9038 20.3239 11.9403C19.2969 11.9769 18.3214 12.3992 17.592 13.1231L13.3366 17.3785C12.612 18.1075 12.1891 19.083 12.1524 20.1102C12.1158 21.1374 12.468 22.1406 13.1389 22.9193L17.2746 27.6874C18.2927 28.9057 16.9129 30.2375 16.6302 31.4942C16.5272 31.7718 16.3455 32.0134 16.1075 32.1897C15.8695 32.3659 15.5854 32.469 15.2898 32.4866L8.99094 32.934C7.96619 33.0103 7.00795 33.4704 6.30759 34.2223C5.60723 34.9743 5.21631 35.9628 5.21289 36.9904V43.0096C5.21631 44.0372 5.60724 45.0257 6.3076 45.7777C7.00796 46.5296 7.96621 46.9897 8.99097 47.066L15.291 47.5134C15.5864 47.5312 15.8703 47.6344 16.108 47.8106C16.3458 47.9869 16.5272 48.2284 16.6301 48.5059C16.9065 49.7656 18.2978 51.0934 17.2735 52.3133L13.1389 57.0808C12.468 57.8594 12.1157 58.8625 12.1524 59.8896C12.189 60.9167 12.612 61.8921 13.3366 62.6209L17.592 66.8769C18.3214 67.6007 19.2969 68.023 20.3239 68.0594C21.3509 68.0958 22.3539 67.7438 23.1328 67.0735L27.8996 62.9383C28.1202 62.7421 28.393 62.6142 28.6849 62.5702C28.9769 62.5262 29.2753 62.568 29.5439 62.6905C30.6117 63.3718 32.5657 63.3395 32.7007 64.9231L33.1474 71.2214C33.2234 72.2463 33.6834 73.2048 34.4354 73.9053C35.1874 74.6059 36.1761 74.9968 37.2039 75H43.2219C44.2497 74.9968 45.2384 74.6058 45.9904 73.9053C46.7424 73.2047 47.2024 72.2462 47.2783 71.2213L47.7251 64.9236C47.7432 64.6279 47.8467 64.3438 48.0231 64.1058C48.1995 63.8678 48.4411 63.6861 48.7188 63.5827C49.9754 63.3069 51.3068 61.9156 52.5261 62.9381L57.293 67.0739C58.0717 67.7447 59.0748 68.0971 60.102 68.0605C61.1291 68.024 62.1047 67.6012 62.8337 66.8768L67.0891 62.6214C67.8138 61.8925 68.2367 60.9169 68.2733 59.8898C68.31 58.8626 67.9577 57.8594 67.2869 57.0806L63.1511 52.3126C62.1331 51.0944 63.5129 49.7624 63.7955 48.5058C63.8986 48.2282 64.0802 47.9866 64.3182 47.8103C64.5562 47.6341 64.8404 47.531 65.136 47.5134L71.4348 47.066C72.4596 46.9897 73.4178 46.5296 74.1182 45.7777C74.8186 45.0257 75.2095 44.0372 75.2129 43.0096V36.9904C75.2095 35.9628 74.8186 34.9743 74.1182 34.2223C73.4178 33.4704 72.4596 33.0103 71.4348 32.934ZM72.7129 43.0096C72.7115 43.4056 72.5607 43.7864 72.2908 44.0761C72.0208 44.3657 71.6515 44.5429 71.2566 44.5721L64.959 45.0195C64.1799 45.0716 63.4327 45.349 62.8083 45.818C62.1839 46.287 61.7093 46.9273 61.4422 47.6611C60.542 49.7209 59.4715 52.0054 61.263 53.9514L65.3973 58.7189C65.6559 59.0188 65.7918 59.4052 65.7778 59.801C65.7638 60.1967 65.6008 60.5726 65.3216 60.8533L61.0662 65.1092C60.785 65.3881 60.4092 65.5507 60.0135 65.5648C59.6178 65.5788 59.2313 65.4432 58.9312 65.1849L54.1643 61.0498C52.2106 59.2508 49.9395 60.3346 47.8741 61.2295C47.1403 61.4966 46.5001 61.9712 46.0311 62.5956C45.5621 63.2199 45.2846 63.967 45.2324 64.7461L44.7857 71.0443C44.7559 71.4392 44.5784 71.8083 44.2886 72.0781C43.9988 72.3479 43.6179 72.4986 43.2219 72.5H37.2039C36.8079 72.4986 36.427 72.3479 36.1372 72.0781C35.8473 71.8083 35.6698 71.4392 35.6401 71.0443L35.1933 64.7455C35.141 63.9665 34.8635 63.2194 34.3945 62.5952C33.9256 61.971 33.2853 61.4964 32.5517 61.2292C31.33 60.8565 30.2222 60.0266 28.9214 60.0531C27.9437 60.0544 26.9992 60.4082 26.2614 61.0498L21.4946 65.1843C21.1945 65.4425 20.8081 65.5782 20.4124 65.5643C20.0167 65.5503 19.6408 65.3879 19.3596 65.1092L15.1042 60.8527C14.825 60.572 14.662 60.1963 14.648 59.8006C14.634 59.405 14.7699 59.0186 15.0285 58.7189L19.1618 53.952C20.9626 51.9959 19.8778 49.7279 18.9834 47.6612C18.7165 46.9275 18.2421 46.2873 17.618 45.8183C16.9939 45.3493 16.2469 45.0718 15.468 45.0196L9.16914 44.5721C8.77427 44.5429 8.40497 44.3657 8.13501 44.0761C7.86505 43.7864 7.71431 43.4056 7.71289 43.0096V36.9904C7.71431 36.5944 7.86505 36.2136 8.13501 35.9239C8.40497 35.6343 8.77427 35.4571 9.16914 35.4279L15.4668 34.9805C16.2459 34.9284 16.9931 34.651 17.6175 34.182C18.2419 33.713 18.7165 33.0727 18.9836 32.3389C19.2216 31.6736 19.4914 31.0193 19.7856 30.3931C20.1128 29.6862 20.2282 28.8997 20.1177 28.1286C20.0072 27.3576 19.6756 26.6351 19.1631 26.0486L15.0286 21.2811C14.7699 20.9812 14.634 20.5948 14.648 20.1991C14.6621 19.8033 14.825 19.4275 15.1043 19.1467L19.3596 14.8907C19.6406 14.6116 20.0165 14.4487 20.4123 14.4347C20.8081 14.4207 21.1946 14.5565 21.4946 14.815L26.2615 18.9502C28.2151 20.7493 30.4865 19.6653 32.5517 18.7705C33.2854 18.5033 33.9257 18.0287 34.3947 17.4044C34.8637 16.7801 35.1411 16.033 35.1934 15.2539L35.6401 8.95565C35.6699 8.5608 35.8474 8.19168 36.1372 7.92188C36.427 7.65209 36.8079 7.50145 37.2039 7.5H43.2219C43.6179 7.50144 43.9988 7.65208 44.2886 7.92189C44.5784 8.19169 44.7559 8.56083 44.7857 8.95569L45.2325 15.2545C45.2848 16.0335 45.5623 16.7806 46.0313 17.4048C46.5002 18.029 47.1404 18.5036 47.8741 18.7708C49.9336 19.6716 52.2193 20.7422 54.1644 18.95L58.9312 14.8157C59.2311 14.557 59.6176 14.4209 60.0134 14.4349C60.4092 14.4488 60.7852 14.6116 61.0662 14.8908L65.3216 19.1473C65.6008 19.428 65.7638 19.8037 65.7778 20.1994C65.7918 20.595 65.6559 20.9814 65.3972 21.2811L61.2639 26.048C59.4631 28.0045 60.548 30.2719 61.4424 32.3388C61.7093 33.0725 62.1837 33.7127 62.8078 34.1817C63.4319 34.6507 64.1789 34.9282 64.9578 34.9804L71.2566 35.4278C71.6515 35.4571 72.0208 35.6342 72.2907 35.9239C72.5607 36.2135 72.7114 36.5944 72.7129 36.9903L72.7129 43.0096Z" fill="#092C4C" stroke="white" mask="url(#path-2-inside-1_14961_8017)"/>
<path d="M24.3147 39.9897L24.3144 39.9896L24.3145 40.0003C24.3192 44.2155 25.9958 48.2568 28.9764 51.2374C31.9571 54.218 35.9983 55.8947 40.2136 55.8994H40.2141C44.4294 55.8947 48.4706 54.2181 51.4513 51.2375C54.4319 48.2569 56.1085 44.2156 56.1133 40.0004H56.1135L56.1131 39.9898C55.2435 18.9154 25.1875 18.9087 24.3147 39.9897ZM27.5632 27.3493C30.9188 23.9937 35.4684 22.1061 40.2139 22.1006C44.9594 22.1061 49.5089 23.9937 52.8645 27.3493C56.2189 30.7037 58.1064 35.2512 58.1133 39.9949C57.128 63.7392 23.3033 63.7457 22.3145 39.995C22.3213 35.2513 24.2088 30.7037 27.5632 27.3493Z" fill="#092C4C" stroke="white" stroke-width="0.5"/>
</svg>
