<svg width="48" height="48" viewBox="0 0 48 48" fill="none" xmlns="http://www.w3.org/2000/svg">
<g clip-path="url(#clip0_14984_3030)">
<path d="M15.1802 3.0392C15.5688 3.0392 15.8837 2.7242 15.8837 2.3356V0.978008C15.8837 0.589414 15.5688 0.274414 15.1802 0.274414C14.7916 0.274414 14.4766 0.589414 14.4766 0.978008V2.3356C14.4766 2.7241 14.7916 3.0392 15.1802 3.0392Z" fill="#FF9B00"/>
<path d="M24.6112 6.53414L25.5711 5.57414C25.8459 5.29936 25.8459 4.85386 25.5711 4.57917C25.2963 4.30429 24.8508 4.30439 24.5761 4.57917L23.6162 5.53917C23.3415 5.81395 23.3415 6.25945 23.6162 6.53414C23.7536 6.67157 23.9337 6.7402 24.1138 6.7402C24.2938 6.7402 24.4738 6.67148 24.6112 6.53414Z" fill="#FF9B00"/>
<path d="M5.74616 23.4082L4.78616 24.3681C4.51138 24.6429 4.51138 25.0883 4.78616 25.3631C4.92351 25.5005 5.1036 25.5692 5.2837 25.5692C5.46379 25.5692 5.64379 25.5005 5.78123 25.3631L6.74123 24.4032C7.01601 24.1284 7.01601 23.683 6.74123 23.4082C6.46645 23.1335 6.02095 23.1335 5.74616 23.4082Z" fill="#FF9B00"/>
<path d="M29.1724 15.6748C29.561 15.6748 29.876 15.3598 29.876 14.9712C29.876 14.5826 29.561 14.2676 29.1724 14.2676H27.8149C27.4263 14.2676 27.1113 14.5826 27.1113 14.9712C27.1113 15.3598 27.4263 15.6748 27.8149 15.6748H29.1724Z" fill="#FF9B00"/>
<path d="M2.54361 14.2676H1.18602C0.797422 14.2676 0.482422 14.5826 0.482422 14.9712C0.482422 15.3598 0.797422 15.6748 1.18602 15.6748H2.54361C2.9322 15.6748 3.2472 15.3598 3.2472 14.9712C3.2472 14.5826 2.93211 14.2676 2.54361 14.2676Z" fill="#FF9B00"/>
<path d="M24.6112 23.4082C24.3364 23.1335 23.8909 23.1335 23.6162 23.4082C23.3415 23.683 23.3415 24.1285 23.6162 24.4032L24.4959 25.2829C24.6332 25.4202 24.8133 25.4889 24.9934 25.4889C25.1735 25.4889 25.3535 25.4202 25.491 25.2829C25.7657 25.0081 25.7657 24.5626 25.491 24.2879L24.6112 23.4082Z" fill="#FF9B00"/>
<path d="M5.74607 6.5341C5.88341 6.67144 6.06351 6.74016 6.2436 6.74016C6.4237 6.74016 6.6037 6.67144 6.74113 6.5341C7.01591 6.25932 7.01591 5.81382 6.74113 5.53913L5.78113 4.57913C5.50635 4.30435 5.06085 4.30435 4.78616 4.57913C4.51138 4.85391 4.51138 5.29941 4.78616 5.5741L5.74607 6.5341Z" fill="#FF9B00"/>
<path d="M12.9259 20.1824C12.9812 20.1272 13.0458 20.1144 13.1181 20.1442C13.1904 20.1742 13.2269 20.2289 13.2269 20.3071C13.2269 21.2377 13.984 21.9947 14.9145 21.9947H15.4428C16.3734 21.9947 17.1304 21.2377 17.1304 20.3071C17.1304 20.2289 17.167 20.1741 17.2392 20.1442C17.3115 20.1144 17.3761 20.1271 17.4314 20.1824C17.7502 20.5012 18.1739 20.6767 18.6247 20.6767C19.0754 20.6767 19.4993 20.5012 19.818 20.1824L20.1916 19.8088C20.5104 19.4901 20.6859 19.0663 20.6859 18.6156C20.6859 18.1648 20.5104 17.741 20.1916 17.4222C20.1363 17.3669 20.1235 17.3022 20.1534 17.2301C20.1834 17.1578 20.2381 17.1212 20.3163 17.1212C21.2469 17.1212 22.0039 16.3642 22.0039 15.4336V14.9053C22.0039 13.9748 21.2468 13.2177 20.3163 13.2177C20.2381 13.2177 20.1834 13.1811 20.1534 13.1089C20.1235 13.0366 20.1363 12.972 20.1916 12.9167C20.5104 12.598 20.6859 12.1742 20.6859 11.7234C20.6859 11.2726 20.5104 10.8488 20.1916 10.5301L19.8181 10.1565C19.4994 9.83777 19.0755 9.66227 18.6248 9.66227C18.174 9.66227 17.7502 9.83777 17.4315 10.1565C17.3761 10.2117 17.3115 10.2246 17.2393 10.1948C17.167 10.1648 17.1305 10.11 17.1305 10.0318C17.1305 9.10127 16.3735 8.34424 15.4429 8.34424H14.9146C13.984 8.34424 13.227 9.10127 13.227 10.0318C13.227 10.11 13.1904 10.1649 13.1182 10.1948C13.0459 10.2247 12.9813 10.2117 12.926 10.1565C12.6072 9.83777 12.1834 9.66227 11.7327 9.66227C11.282 9.66227 10.8581 9.83777 10.5394 10.1566L10.1659 10.5301C9.84714 10.8489 9.67164 11.2727 9.67164 11.7235C9.67164 12.1742 9.84714 12.5981 10.1659 12.9168C10.2212 12.9721 10.234 13.0368 10.204 13.109C10.1741 13.1813 10.1193 13.2178 10.0411 13.2178C9.11055 13.2178 8.35352 13.9749 8.35352 14.9054V15.4337C8.35352 16.3643 9.11055 17.1213 10.0411 17.1213C10.1193 17.1213 10.1741 17.158 10.204 17.2301C10.234 17.3024 10.2211 17.367 10.1659 17.4223C9.84714 17.7411 9.67164 18.1649 9.67164 18.6157C9.67164 19.0664 9.84714 19.4903 10.1659 19.8089L10.5395 20.1825C11.1973 20.8404 12.268 20.8404 12.9259 20.1824ZM10.041 15.714C9.88633 15.714 9.76061 15.5882 9.76061 15.4336V14.9053C9.76061 14.7506 9.88642 14.6249 10.041 14.6249C10.6838 14.6249 11.2581 14.2412 11.504 13.6474C11.75 13.0536 11.6152 12.3761 11.1607 11.9216C11.0892 11.8502 11.0785 11.7668 11.0785 11.7234C11.0785 11.68 11.0891 11.5966 11.1608 11.525L11.5343 11.1515C11.6436 11.0421 11.8215 11.042 11.9308 11.1515C12.3853 11.606 13.0628 11.7406 13.6565 11.4948C14.2504 11.2489 14.6341 10.6746 14.6341 10.0318C14.6341 9.87715 14.7599 9.75143 14.9145 9.75143H15.4428C15.5975 9.75143 15.7232 9.87724 15.7232 10.0318C15.7232 10.6746 16.1069 11.2489 16.7007 11.4948C17.2945 11.7409 17.9719 11.6061 18.4265 11.1515C18.4979 11.0801 18.5814 11.0694 18.6248 11.0694C18.6682 11.0694 18.7515 11.08 18.823 11.1515L19.1966 11.5251C19.306 11.6344 19.306 11.8123 19.1966 11.9216C18.7421 12.3761 18.6074 13.0535 18.8533 13.6473C19.0993 14.2411 19.6735 14.6248 20.3163 14.6248C20.471 14.6248 20.5968 14.7506 20.5968 14.9052V15.4335C20.5968 15.5882 20.471 15.7139 20.3163 15.7139C19.6735 15.7139 19.0993 16.0976 18.8533 16.6915C18.6073 17.2853 18.742 17.9627 19.1966 18.4171C19.306 18.5264 19.306 18.7044 19.1966 18.8137L18.823 19.1873C18.7136 19.2966 18.5358 19.2966 18.4265 19.1873C17.972 18.7328 17.2945 18.5981 16.7008 18.844C16.107 19.09 15.7233 19.6642 15.7233 20.3069C15.7233 20.4616 15.5975 20.5873 15.4429 20.5873H14.9146C14.7599 20.5873 14.6342 20.4615 14.6342 20.3069C14.6342 19.6641 14.2505 19.0899 13.6566 18.844C13.4595 18.7623 13.2533 18.7226 13.049 18.7226C12.6377 18.7226 12.2346 18.8835 11.9309 19.1872C11.8215 19.2966 11.6437 19.2965 11.5344 19.1872L11.1608 18.8136C11.0893 18.7421 11.0786 18.6587 11.0786 18.6153C11.0786 18.5719 11.0892 18.4886 11.1608 18.417C11.6153 17.9625 11.75 17.2852 11.5041 16.6914C11.258 16.0977 10.6838 15.714 10.041 15.714Z" fill="#FF9B00"/>
<path d="M15.1788 17.612C16.5255 17.612 17.6213 16.5163 17.6213 15.1695C17.6213 13.8227 16.5256 12.7271 15.1788 12.7271C13.8321 12.7271 12.7363 13.8227 12.7363 15.1695C12.7363 16.5163 13.832 17.612 15.1788 17.612ZM15.1788 14.1342C15.7496 14.1342 16.2141 14.5987 16.2141 15.1695C16.2141 15.7404 15.7496 16.2048 15.1788 16.2048C14.608 16.2048 14.1435 15.7404 14.1435 15.1695C14.1435 14.5987 14.608 14.1342 15.1788 14.1342Z" fill="#FF9B00"/>
<path d="M47.2468 26.1331L45.148 21.7274C45.0673 21.5579 45.0234 21.3691 45.021 21.1814L44.9809 17.9542C44.9809 8.08809 37.038 0.0338438 27.2748 9.375e-05C27.2542 0 27.2336 0 27.2129 0C24.0392 0 20.9259 0.846375 18.2056 2.44941C17.8709 2.64666 17.7594 3.078 17.9566 3.41278C18.1539 3.74756 18.5852 3.85903 18.92 3.66178C21.424 2.18625 24.2903 1.40719 27.2129 1.40719C27.2319 1.40719 27.2509 1.40719 27.27 1.40728C36.2598 1.43841 43.5737 8.86134 43.5738 17.9629L43.614 21.1987C43.6187 21.5885 43.7099 21.9804 43.8776 22.3325L45.9764 26.7382C46.3973 27.6218 45.7479 28.6249 44.7921 28.625C43.2871 28.6073 42.0517 29.8253 42.0516 31.3389L42.0513 37.0219C42.0512 38.3812 40.8441 39.4216 39.5012 39.2252L34.5889 38.5047C33.0991 38.2862 31.7629 39.4423 31.7629 40.9465V42.5011L16.9003 41.1268V38.7953C16.9003 38.4067 16.5853 38.0918 16.1967 38.0918C15.8081 38.0918 15.4931 38.4067 15.4931 38.7953V40.9967L15.2346 40.9728C13.8487 40.8444 12.6504 41.9376 12.6504 43.3291V45.616C12.6504 46.9196 13.7109 47.9812 15.0145 47.9824L33.5036 48H33.5059C34.8127 48 35.8722 46.9426 35.8722 45.6337V45.0386C35.8722 43.8085 34.9485 42.7956 33.7237 42.6823L33.17 42.6311V40.9464C33.17 40.2984 33.7425 39.8032 34.3846 39.8969L39.297 40.6174C41.4909 40.9393 43.4583 39.2365 43.4584 37.0219L43.4587 31.3389C43.4588 30.6148 44.0472 30.0236 44.7853 30.0321C46.7874 30.0322 48.1095 27.9441 47.2468 26.1331ZM34.465 45.0387V45.6338C34.465 46.1634 34.0364 46.5929 33.5058 46.5929C33.5055 46.5929 33.5052 46.5929 33.5049 46.5929L15.0157 46.5752C14.4873 46.5747 14.0575 46.1444 14.0575 45.616V43.3291C14.0575 42.7684 14.5378 42.3214 15.105 42.3741L16.1243 42.4683C16.1246 42.4683 16.1248 42.4683 16.125 42.4684L33.5941 44.0837C34.0906 44.1295 34.465 44.5401 34.465 45.0387Z" fill="#092C4C"/>
<path d="M13.7917 36.2097H16.7626C18.616 36.2097 20.1443 34.7929 20.3221 32.9856C20.8829 32.7358 21.2753 32.1743 21.2753 31.522V28.1253C21.2753 27.5711 20.9924 27.0819 20.5635 26.794C21.0911 24.9625 22.008 23.2356 23.2391 21.7685C29.0394 14.8565 23.9748 4.37685 15.0285 4.49563C6.20939 4.61854 1.47914 14.9626 7.07489 21.7171C8.32233 23.2229 9.2512 24.9693 9.7852 26.7994C9.36089 27.088 9.08152 27.5745 9.08152 28.1252V31.5219C9.08152 32.2518 9.57258 32.868 10.2413 33.0608C10.4536 34.8319 11.9643 36.2097 13.7917 36.2097ZM10.6839 31.7173C10.5762 31.7173 10.4886 31.6297 10.4886 31.522V28.1253C10.4886 28.0176 10.5762 27.93 10.6839 27.93H19.6714C19.6738 27.9302 19.6761 27.9305 19.6785 27.9306C19.7834 27.9338 19.8679 28.0197 19.8679 28.1253V31.522C19.8679 31.6297 19.7803 31.7173 19.6726 31.7173H10.6839ZM16.7626 34.8025H13.7917C12.7644 34.8025 11.9022 34.0846 11.6788 33.1243H18.8756C18.6522 34.0846 17.79 34.8025 16.7626 34.8025ZM15.0481 5.90263C22.8516 5.79969 27.1377 14.9334 22.1611 20.864C20.7777 22.5126 19.7537 24.4592 19.1775 26.5229H11.1699C10.588 24.4663 9.55439 22.5045 8.15845 20.8195C3.30989 14.9668 7.41483 6.00913 15.0481 5.90263Z" fill="#FF9B00"/>
</g>
<defs>
<clipPath id="clip0_14984_3030">
<rect width="48" height="48" fill="white"/>
</clipPath>
</defs>
</svg>
