<svg width="49" height="49" viewBox="0 0 49 49" fill="none" xmlns="http://www.w3.org/2000/svg">
<g clip-path="url(#clip0_14984_3118)">
<path d="M17.632 27.2733C16.579 27.9407 15.3806 28.3447 14.1384 28.4509C13.7594 27.066 12.503 26.1041 11.0672 26.0997H7.06719C5.29988 26.0997 3.86719 27.5324 3.86719 29.2997V45.2997C3.86719 47.067 5.29988 48.4997 7.06719 48.4997H11.0672C12.5155 48.494 13.7795 47.5161 14.1488 46.1157C14.8281 46.1513 15.4939 46.3193 16.1088 46.6101C16.4176 46.7565 16.7128 46.9301 17.0088 47.1013C17.4504 47.3706 17.9105 47.6086 18.3856 47.8133C19.6243 48.286 20.9415 48.5189 22.2672 48.4997H36.6672C37.8502 48.4991 38.9364 47.8459 39.4915 46.8012C40.0465 45.7565 39.98 44.4908 39.3184 43.5101C40.2562 43.1873 40.9902 42.4462 41.3039 41.5052C41.6175 40.5643 41.475 39.531 40.9184 38.7101C42.0944 38.3076 42.9278 37.2565 43.0517 36.0197C43.1756 34.7829 42.5672 33.5874 41.4944 32.9597C41.9903 32.3876 42.2645 31.6567 42.2672 30.8997C42.2672 29.1324 40.8345 27.6997 39.0672 27.6997H28.9616C30.2128 25.3173 32.4864 19.9917 30.2736 16.1181C29.3 14.4165 27.2656 13.0853 25.1048 14.1861C22.8504 15.3317 23.3552 17.5949 23.5984 18.6813C24.2184 21.4685 22.2112 24.3597 17.632 27.2733ZM11.0672 46.8997H7.06719C6.18353 46.8997 5.46719 46.1833 5.46719 45.2997V29.2997C5.46719 28.416 6.18353 27.6997 7.06719 27.6997H11.0672C11.9508 27.6997 12.6672 28.416 12.6672 29.2997V45.2997C12.6672 46.1833 11.9508 46.8997 11.0672 46.8997ZM25.16 18.3333C24.7984 16.7149 24.9608 16.0541 25.8304 15.6133C27.2416 14.8933 28.4152 16.0933 28.8848 16.9133C31.276 21.1005 26.956 28.0021 26.912 28.0717C26.756 28.318 26.7464 28.6296 26.8869 28.8851C27.0273 29.1406 27.2956 29.2994 27.5872 29.2997H39.0672C39.9508 29.2997 40.6672 30.016 40.6672 30.8997C40.6672 31.7833 39.9508 32.4997 39.0672 32.4997H34.2672C33.8254 32.4997 33.4672 32.8578 33.4672 33.2997C33.4672 33.7415 33.8254 34.0997 34.2672 34.0997H39.8672C40.7508 34.0997 41.4672 34.816 41.4672 35.6997C41.4672 36.5833 40.7508 37.2997 39.8672 37.2997H34.2672C33.8254 37.2997 33.4672 37.6578 33.4672 38.0997C33.4672 38.5415 33.8254 38.8997 34.2672 38.8997H38.2672C39.1508 38.8997 39.8672 39.616 39.8672 40.4997C39.8672 41.3833 39.1508 42.0997 38.2672 42.0997H34.2672C33.8254 42.0997 33.4672 42.4578 33.4672 42.8997C33.4672 43.3415 33.8254 43.6997 34.2672 43.6997H36.6672C37.5508 43.6997 38.2672 44.416 38.2672 45.2997C38.2672 46.1833 37.5508 46.8997 36.6672 46.8997H22.2672C21.1476 46.9192 20.0346 46.7259 18.9872 46.3301C18.5818 46.1532 18.1891 45.9484 17.812 45.7173C17.4792 45.5237 17.1448 45.3317 16.7984 45.1661C16.0036 44.7922 15.1442 44.5749 14.2672 44.5261V30.0605C15.7703 29.9273 17.219 29.4333 18.4904 28.6205C23.6984 25.3101 25.9424 21.8485 25.16 18.3333Z" fill="#FF9B00"/>
<path d="M34.2756 1.27693V1.29373V1.30013C34.2756 1.59453 34.2028 8.50013 27.8684 8.50013C27.4265 8.50013 27.0684 8.8583 27.0684 9.30013C27.0684 9.74196 27.4265 10.1001 27.8684 10.1001C34.178 10.1001 34.2748 17.0073 34.2756 17.3001C34.2696 17.742 34.6229 18.105 35.0648 18.1109C35.5066 18.1169 35.8696 17.7636 35.8756 17.3217V17.3049V17.3001C35.8756 17.0057 35.9484 10.1001 42.2836 10.1001C42.7254 10.1001 43.0836 9.74196 43.0836 9.30013C43.0836 8.8583 42.7254 8.50013 42.2836 8.50013C35.9732 8.50013 35.8772 1.59293 35.8756 1.30013C35.8815 0.858304 35.5282 0.495297 35.0864 0.489332C34.6445 0.483368 34.2815 0.836705 34.2756 1.27853V1.27693ZM38.6356 9.30013C36.9974 10.1643 35.7311 11.597 35.0748 13.3289C34.4188 11.5967 33.1524 10.164 31.514 9.30013C33.1524 8.43631 34.4188 7.00353 35.0748 5.27133C35.7311 7.00329 36.9974 8.43596 38.6356 9.30013Z" fill="#092C4C"/>
<path d="M14.2672 10.9001V10.8953C14.2659 10.4534 13.9066 10.0963 13.4648 10.0977C13.023 10.099 12.6659 10.4582 12.6672 10.9001C12.6672 11.0961 12.6 15.7001 8.66719 15.7001C8.22536 15.7001 7.86719 16.0582 7.86719 16.5001C7.86719 16.9419 8.22536 17.3001 8.66719 17.3001C12.6 17.3001 12.6672 21.9057 12.6672 22.1001V22.1049C12.6685 22.5467 13.0278 22.9038 13.4696 22.9025C13.9114 22.9011 14.2685 22.5419 14.2672 22.1001C14.2672 21.9041 14.3344 17.3001 18.2672 17.3001C18.709 17.3001 19.0672 16.9419 19.0672 16.5001C19.0672 16.0582 18.709 15.7001 18.2672 15.7001C14.3344 15.7001 14.2672 11.0945 14.2672 10.9001ZM15.3424 16.5001C14.5323 17.0404 13.8842 17.7905 13.4672 18.6705C13.0502 17.7905 12.4021 17.0404 11.592 16.5001C12.4022 15.9599 13.0504 15.2097 13.4672 14.3297C13.884 15.2097 14.5322 15.9599 15.3424 16.5001Z" fill="#092C4C"/>
<path d="M41.468 17.2998C41.0261 17.2998 40.668 17.658 40.668 18.0998V19.6998C40.668 20.1416 41.0261 20.4998 41.468 20.4998C41.9098 20.4998 42.268 20.1416 42.268 19.6998V18.0998C42.268 17.658 41.9098 17.2998 41.468 17.2998Z" fill="#092C4C"/>
<path d="M41.468 25.3006C41.9098 25.3006 42.268 24.9424 42.268 24.5006V22.9006C42.268 22.4588 41.9098 22.1006 41.468 22.1006C41.0261 22.1006 40.668 22.4588 40.668 22.9006V24.5006C40.668 24.9424 41.0261 25.3006 41.468 25.3006Z" fill="#092C4C"/>
<path d="M43.0676 22.1H44.6676C45.1094 22.1 45.4676 21.7418 45.4676 21.3C45.4676 20.8582 45.1094 20.5 44.6676 20.5H43.0676C42.6258 20.5 42.2676 20.8582 42.2676 21.3C42.2676 21.7418 42.6258 22.1 43.0676 22.1Z" fill="#092C4C"/>
<path d="M39.8668 22.1C40.3086 22.1 40.6668 21.7418 40.6668 21.3C40.6668 20.8582 40.3086 20.5 39.8668 20.5H38.2668C37.825 20.5 37.4668 20.8582 37.4668 21.3C37.4668 21.7418 37.825 22.1 38.2668 22.1H39.8668Z" fill="#092C4C"/>
<path d="M21.3009 7.86568L22.5009 9.06568C22.8148 9.36886 23.3138 9.36453 23.6223 9.05594C23.9309 8.74735 23.9353 8.24839 23.6321 7.93448L22.4321 6.73448C22.2312 6.52652 21.9338 6.44311 21.6541 6.51633C21.3744 6.58954 21.1559 6.80798 21.0827 7.08768C21.0095 7.36738 21.0929 7.66483 21.3009 7.86568Z" fill="#092C4C"/>
<path d="M18.9011 5.46593C19.215 5.7691 19.714 5.76477 20.0226 5.45618C20.3312 5.14759 20.3355 4.64863 20.0323 4.33473L18.8323 3.13473C18.5184 2.83155 18.0195 2.83588 17.7109 3.14447C17.4023 3.45306 17.398 3.95202 17.7011 4.26593L18.9011 5.46593Z" fill="#092C4C"/>
<path d="M17.701 9.06568C18.0134 9.37799 18.5198 9.37799 18.8322 9.06568L20.0322 7.86568C20.2402 7.66483 20.3236 7.36738 20.2504 7.08768C20.1772 6.80798 19.9587 6.58954 19.679 6.51633C19.3993 6.44311 19.1019 6.52652 18.901 6.73448L17.701 7.93448C17.3887 8.24688 17.3887 8.75328 17.701 9.06568Z" fill="#092C4C"/>
<path d="M21.8663 5.70048C22.0784 5.70043 22.2819 5.61612 22.4319 5.46608L23.6319 4.26608C23.8398 4.06522 23.9232 3.76777 23.85 3.48807C23.7768 3.20837 23.5584 2.98993 23.2787 2.91672C22.999 2.84351 22.7015 2.92691 22.5007 3.13488L21.3007 4.33488C21.0719 4.56367 21.0035 4.90771 21.1273 5.2066C21.2511 5.50549 21.5427 5.70041 21.8663 5.70048Z" fill="#092C4C"/>
</g>
<defs>
<clipPath id="clip0_14984_3118">
<rect width="48" height="48" fill="white" transform="translate(0.667969 0.5)"/>
</clipPath>
</defs>
</svg>
