<svg width="49" height="49" viewBox="0 0 49 49" fill="none" xmlns="http://www.w3.org/2000/svg">
<g clip-path="url(#clip0_14984_3058)">
<path d="M22.6995 37.6471C22.4688 37.6471 22.2472 37.5555 22.0823 37.3926L20.0602 35.3705C19.7195 35.0298 19.7195 34.4786 20.0602 34.1379C20.4009 33.7972 20.9521 33.7972 21.2928 34.1379L22.6976 35.5427L28.0385 30.2018C28.3792 29.8611 28.9304 29.8611 29.2711 30.2018C29.6118 30.5425 29.6118 31.0938 29.2711 31.4344L23.3149 37.3907C23.1519 37.5537 22.9303 37.6471 22.6995 37.6471Z" fill="#FF9B00"/>
<path d="M38.0995 34.6673H33.8484C33.3667 34.6673 32.9766 34.2772 32.9766 33.7955C32.9766 33.3138 33.3667 32.9237 33.8484 32.9237H38.0995C42.9641 32.9237 46.924 28.9656 46.924 24.101C46.924 19.2346 42.966 15.2765 38.0995 15.2765C37.6507 15.2765 37.2002 15.3112 36.757 15.3772C36.2807 15.4505 35.8357 15.1226 35.7642 14.6464C35.6909 14.1701 36.0188 13.7251 36.495 13.6536C37.0243 13.573 37.5629 13.5327 38.0995 13.5327C43.9257 13.5327 48.6658 18.2728 48.6658 24.1009C48.6658 29.9272 43.9257 34.6673 38.0995 34.6673Z" fill="#092C4C"/>
<path d="M15.4853 34.6669H8.81466C4.32186 34.6669 0.666016 31.0112 0.666016 26.5183C0.666016 22.0254 4.32186 18.3696 8.81466 18.3696C9.24329 18.3696 9.67365 18.4026 10.0913 18.4685C10.5675 18.5436 10.8916 18.9905 10.8166 19.4649C10.7415 19.9411 10.2946 20.2652 9.82023 20.1902C9.49239 20.139 9.15352 20.1115 8.81657 20.1115C5.28528 20.1115 2.41159 22.9853 2.41159 26.5164C2.41159 30.0476 5.28537 32.9214 8.81657 32.9214H15.4871C15.9688 32.9214 16.359 33.3116 16.359 33.7933C16.3571 34.2768 15.9669 34.6669 15.4853 34.6669Z" fill="#092C4C"/>
<path d="M9.95464 20.2032C9.9418 20.2032 9.93078 20.2032 9.91804 20.2032C9.43633 20.1831 9.06269 19.7783 9.08281 19.2966C9.40701 11.3641 15.8853 5.15137 23.8288 5.15137C29.7741 5.15137 35.1112 8.68994 37.4264 14.1646C37.6132 14.6078 37.4063 15.1188 36.963 15.3074C36.5198 15.4942 36.0088 15.2873 35.8201 14.844C33.7779 10.0142 29.0708 6.89503 23.827 6.89503C16.8212 6.89503 11.1085 12.3751 10.8228 19.3699C10.8063 19.8368 10.4199 20.2032 9.95464 20.2032Z" fill="#092C4C"/>
<path d="M24.6668 43.8488C19.1245 43.8488 14.6133 39.3394 14.6133 33.7972C14.6133 28.2549 19.1227 23.7437 24.6668 23.7437C30.211 23.7437 34.7185 28.253 34.7185 33.7972C34.7185 39.3394 30.2092 43.8488 24.6668 43.8488ZM24.6668 25.4873C20.0861 25.4873 16.3569 29.2145 16.3569 33.7972C16.3569 38.3779 20.0842 42.1052 24.6668 42.1052C29.2495 42.1052 32.9767 38.3779 32.9767 33.7972C32.9749 29.2145 29.2476 25.4873 24.6668 25.4873Z" fill="#FF9B00"/>
</g>
<defs>
<clipPath id="clip0_14984_3058">
<rect width="48" height="48" fill="white" transform="translate(0.666016 0.5)"/>
</clipPath>
</defs>
</svg>
