<svg width="81" height="80" viewBox="0 0 81 80" fill="none" xmlns="http://www.w3.org/2000/svg">
<g clip-path="url(#clip0_14961_8023)">
<path d="M15.6834 36.3103L15.7722 36.2754C16.0707 36.1578 16.4938 36.1429 16.9717 36.1735C17.453 36.2044 18.0073 36.283 18.5758 36.3638C18.5759 36.3638 18.5759 36.3638 18.576 36.3638L18.5791 36.3642C19.7066 36.5222 20.871 36.6854 21.9694 36.6088C23.0661 36.5324 24.0887 36.2173 24.9347 35.4236L25.0391 35.3257L25.0952 35.4574C25.3458 36.0464 25.5009 36.6054 25.4902 37.21C25.4796 37.8149 25.3033 38.4567 24.9048 39.2123C24.1105 40.7184 22.4227 42.6953 19.3551 45.7629C11.0371 54.0809 13.6134 63.6842 13.8935 64.6358L13.895 64.641L13.8948 64.641C14.0149 65.1484 14.472 65.5222 15.0125 65.5222H46.4763C46.8386 65.5222 47.1945 65.3489 47.4198 65.0295C47.7792 64.5057 47.6516 63.7919 47.1298 63.4293L47.1298 63.4292C45.6146 62.3746 44.7313 61.2514 44.3231 60.1468L44.323 60.1466C43.9603 59.157 43.988 58.172 44.2824 57.2776C44.5843 56.3464 45.1748 55.508 45.925 54.8473C46.826 54.0503 47.9495 53.5227 49.0667 53.4294L49.073 53.4289L49.073 53.4291C49.5523 53.4193 49.991 53.1072 50.1441 52.6239C50.919 50.1669 51.1841 46.8713 50.9122 43.2428C50.5031 37.8045 48.8852 31.5547 46.0096 26.236C43.075 20.8101 38.8316 16.3376 33.2167 14.5613L33.2469 14.4659L33.2167 14.5613C31.2596 13.9418 29.1421 13.6557 26.8619 13.7695L26.8242 13.7714L26.7947 13.748C25.4335 12.6666 23.9688 11.7076 22.4187 11.1729L22.4185 11.1729C20.6028 10.5436 18.7098 10.4966 16.7925 11.4744V11.4793L16.7376 11.5071C16.6718 11.5403 16.6089 11.579 16.5533 11.6275L16.5501 11.6303L16.55 11.6302C16.0563 12.0257 15.977 12.7477 16.3724 13.2408C16.3724 13.2408 16.3724 13.2408 16.3724 13.2409L19.5868 17.2477L19.6444 17.3195L19.5776 17.3829L4.00633 32.1422L4.00351 32.1449L4.00346 32.1449C3.61175 32.4883 3.4955 33.0695 3.75307 33.5485L15.6834 36.3103ZM15.6834 36.3103L15.7141 36.4006L16.2866 38.0849C16.2866 38.0849 16.2866 38.085 16.2866 38.085C16.4785 38.6504 16.2027 39.2641 15.6656 39.5033L15.6656 39.5032L15.6619 39.5051L9.78606 42.4161C9.78602 42.4161 9.78598 42.4161 9.78594 42.4162C9.23056 42.688 8.55952 42.47 8.26871 41.9298L8.2687 41.9297L3.75311 33.5485L15.6834 36.3103ZM13.7118 37.9143L13.7905 37.8755L13.7622 37.7924L13.2923 36.4121C13.1945 36.1215 13.2125 35.7882 13.3721 35.4978L13.3723 35.4974C13.9234 34.4837 14.7123 34.0519 15.6555 33.911C16.608 33.7687 17.7134 33.9234 18.891 34.0899L18.8911 34.0899L18.9095 34.0925C19.9041 34.2328 20.9752 34.3839 21.9053 34.2426C22.8485 34.0993 23.6563 33.6536 24.0992 32.5978L24.1008 32.5981C24.2032 32.357 24.384 32.147 24.6301 32.0205L24.6309 32.0201C25.1899 31.7265 25.8826 31.9435 26.1764 32.5029C26.1765 32.5029 26.1765 32.503 26.1765 32.503L26.385 32.9045L26.3849 32.9046L26.3878 32.9095C26.3919 32.9164 26.396 32.924 26.4014 32.9342L26.4032 32.9375C26.4085 32.9474 26.4151 32.9597 26.4225 32.9718C27.6027 35.2131 28.3604 36.6641 27.7884 38.6206C27.5008 39.6045 26.8746 40.7227 25.7797 42.1343C24.6851 43.5455 23.1264 45.2445 20.98 47.3902L20.9799 47.3902C14.6832 53.6907 15.3918 60.7126 15.8877 63.1428L15.904 63.2228H15.9857H43.2919H43.4986L43.3703 63.0607C42.821 62.3668 42.4277 61.6549 42.1678 60.9393L42.1676 60.9389C41.6122 59.4285 41.6503 57.928 42.0981 56.5685C42.5339 55.2458 43.3631 54.0566 44.4044 53.1365C45.4657 52.2007 46.7513 51.5307 48.085 51.2589L48.1467 51.2463L48.162 51.1853C48.6905 49.0804 48.844 46.3833 48.6191 43.414C48.2351 38.2585 46.7054 32.3477 43.988 27.3209C41.3274 22.3975 37.5184 18.3344 32.5233 16.7537L32.5232 16.7537C30.7269 16.1875 28.7663 15.9361 26.645 16.0828V16.0787L26.5375 16.0868C26.2548 16.1081 25.9654 16.0255 25.7253 15.8292C24.4448 14.7779 23.065 13.8186 21.6716 13.3352L21.6713 13.3351C20.9146 13.0751 20.1418 12.957 19.3588 13.0504L19.1801 13.0717L19.2926 13.2122L22.0889 16.7028L22.0884 16.7032L22.0962 16.711L22.0966 16.7115C22.4636 17.1727 22.4252 17.8441 21.9912 18.2558C21.9912 18.2558 21.9912 18.2559 21.9912 18.2559L6.24312 33.1808L6.18755 33.2335L6.22389 33.3009L9.71827 39.7803L9.76408 39.8652L9.85059 39.8224L13.7118 37.9143Z" fill="#092C4C" stroke="white" stroke-width="0.2"/>
<path d="M8.32852 65.6857C8.32852 65.0223 8.59346 64.4166 9.02331 63.9757H9.02763L9.05696 63.9462C9.50097 63.4991 10.1145 63.2226 10.7885 63.2226H50.2148C50.8938 63.2226 51.5068 63.4992 51.9541 63.9464C52.3973 64.3896 52.6741 65.0083 52.6741 65.6857V69.9457C52.6741 70.6233 52.3976 71.2364 51.954 71.6851C51.5068 72.1285 50.8931 72.4038 50.2148 72.4038H10.7885C10.1142 72.4038 9.49621 72.1282 9.05233 71.6849C8.60506 71.2364 8.32852 70.6227 8.32852 69.9457V65.6857ZM50.3735 65.6857C50.3735 65.6453 50.3572 65.6068 50.3309 65.5786C50.3259 65.5721 50.3205 65.5663 50.3148 65.5611V65.5226H50.2148H10.7885C10.7443 65.5226 10.7072 65.5443 10.6961 65.5508C10.6955 65.5511 10.6951 65.5514 10.6947 65.5516L10.5894 65.6126L10.6318 65.661C10.6305 65.669 10.6298 65.6772 10.6298 65.6857V69.9457C10.6298 69.986 10.6473 70.0312 10.6832 70.0605C10.7067 70.083 10.741 70.1044 10.7885 70.1044H50.2148C50.2502 70.1044 50.2937 70.0909 50.3243 70.0573C50.361 70.0258 50.3735 69.9803 50.3735 69.9457V65.6857Z" fill="#092C4C" stroke="white" stroke-width="0.2"/>
<path d="M3.4522 72.6003L3.45218 72.6003L3.44845 72.604L3.44843 72.604C3.32711 72.7253 3.25289 72.8971 3.25289 73.0847V76.9347C3.25289 77.1093 3.31959 77.2642 3.42227 77.3834V77.3899L3.45156 77.4192C3.57339 77.541 3.74506 77.6147 3.92914 77.6147H57.0735C57.2619 77.6147 57.4297 77.54 57.5505 77.4192L57.5798 77.3899V77.3841C57.6862 77.2629 57.7491 77.1085 57.7491 76.9347V73.0847C57.7491 72.8971 57.6749 72.7253 57.5536 72.604L57.5499 72.6003L57.4791 72.671M3.4522 72.6003L3.52289 72.671C3.62539 72.5685 3.77164 72.5047 3.92914 72.5047H57.0729C57.2335 72.5047 57.3766 72.5685 57.4791 72.671M3.4522 72.6003C3.57327 72.4792 3.74487 72.4047 3.92914 72.4047H57.0729C57.2606 72.4047 57.429 72.4794 57.5499 72.6003L57.4791 72.671M3.4522 72.6003L57.4791 72.671M1.8311 79.0372L1.76037 78.9664L1.75776 78.969C1.26029 78.4375 0.953516 77.7187 0.953516 76.9354V73.0854C0.953516 72.2843 1.27684 71.5526 1.79868 71.0122H1.86039V70.9505C2.40009 70.4281 3.13173 70.1054 3.92914 70.1054H57.0735C57.8855 70.1054 58.6294 70.4406 59.1725 70.9795L59.1757 70.9828C59.1758 70.9828 59.1758 70.9828 59.1758 70.9829C59.7151 71.5252 60.0498 72.2696 60.0498 73.0854V76.9354C60.0498 77.7066 59.7524 78.4157 59.2686 78.9442L59.1758 79.0373C58.635 79.58 57.8857 79.9147 57.0741 79.9147H3.92914C3.11719 79.9147 2.37345 79.5795 1.8311 79.0372Z" fill="#092C4C" stroke="white" stroke-width="0.2"/>
<path d="M60.7411 33.423V33.523H60.8411H72.0542C72.6894 33.523 73.2042 34.0349 73.2042 34.6693V49.7318C73.2042 50.3665 72.689 50.8818 72.0542 50.8818C71.4187 50.8818 70.903 50.3665 70.903 49.7318V35.9193V35.8193H70.803H59.5898C58.9551 35.8193 58.4398 35.3041 58.4398 34.6687V16.5099C58.4398 15.8751 58.9551 15.3593 59.5898 15.3593C60.2253 15.3593 60.7411 15.8746 60.7411 16.5099V33.423Z" fill="#FF9B00" stroke="white" stroke-width="0.2"/>
<path d="M55.6506 22.6708L55.6508 22.6705L59.5083 17.9011L59.5861 17.805L59.6638 17.9011L63.5251 22.6736C63.9247 23.1675 64.6505 23.2434 65.1432 22.8444L65.1433 22.8443C65.6377 22.4454 65.7137 21.7197 65.314 21.2263L65.314 21.2263L60.6605 15.4747V15.4749L60.4832 15.2594C60.4324 15.1976 60.3747 15.1392 60.308 15.0841C59.8146 14.6896 59.0928 14.7656 58.6933 15.2587L55.6506 22.6708ZM55.6506 22.6708C55.2554 23.1636 54.534 23.2405 54.0405 22.8447L54.0405 22.8447C53.5467 22.4492 53.4669 21.7281 53.8663 21.2344L53.8664 21.2343L58.6932 15.2588L55.6506 22.6708Z" fill="#FF9B00" stroke="white" stroke-width="0.2"/>
<path d="M56.2446 1.50176L56.2449 1.50146C57.0987 0.644019 58.2841 0.114648 59.5897 0.114648C60.8964 0.114648 62.0769 0.643307 62.9359 1.50161C63.7896 2.35538 64.3178 3.54083 64.3178 4.84652C64.3178 6.15263 63.7898 7.33376 62.9359 8.19206C62.0775 9.04602 60.8964 9.57465 59.5897 9.57465C58.284 9.57465 57.0986 9.04586 56.2448 8.19206C55.3877 7.33437 54.8578 6.15261 54.8578 4.84652C54.8578 3.54091 55.3872 2.35553 56.2446 1.50176ZM61.31 3.12733L61.3098 3.12706C60.8692 2.68653 60.261 2.41527 59.5909 2.41527C58.9203 2.41527 58.3114 2.6865 57.8708 3.12706C57.4303 3.56761 57.1591 4.17589 57.1591 4.84652C57.1591 5.51711 57.4303 6.12606 57.8709 6.56604L57.8712 6.56635C58.3113 7.00187 58.9193 7.27777 59.5909 7.27777C60.2607 7.27777 60.8693 7.00186 61.3094 6.56635L61.3101 6.56567C61.7463 6.12553 62.0216 5.51752 62.0216 4.84652V4.84643C62.0209 4.17178 61.7463 3.56688 61.31 3.12733Z" fill="#092C4C" stroke="white" stroke-width="0.2"/>
<path d="M75.3994 64.1364L75.3994 64.1365C74.5424 64.9947 73.3601 65.5234 72.0545 65.5234C70.7439 65.5234 69.5635 64.9953 68.7085 64.1366L68.7082 64.1363C67.8514 63.2825 67.3227 62.1021 67.3227 60.7915C67.3227 59.486 67.8507 58.3043 68.7083 57.4466C69.5635 56.5927 70.7446 56.0634 72.0545 56.0634C73.36 56.0634 74.5417 56.5926 75.3994 57.4466C76.2534 58.3037 76.7827 59.486 76.7827 60.7915C76.7827 62.1021 76.2533 63.2826 75.3994 64.1364ZM70.3344 62.5116L70.3346 62.5117C70.7749 62.9508 71.38 63.2234 72.0545 63.2234C72.7238 63.2234 73.3341 62.9509 73.7698 62.5114C74.2102 62.0709 74.4814 61.4658 74.4814 60.7915C74.4814 60.1206 74.2104 59.5122 73.7696 59.0764C73.3338 58.6356 72.7235 58.3646 72.0545 58.3646C71.3802 58.3646 70.7752 58.6358 70.3347 59.0762C69.8937 59.512 69.6227 60.1211 69.6227 60.7915C69.6227 61.4659 69.8939 62.0711 70.3344 62.5116Z" fill="#092C4C" stroke="white" stroke-width="0.2"/>
<path d="M80.4858 17.6491L73.977 24.1572M80.4858 17.6491C80.9739 17.1603 80.9739 16.3672 80.4858 15.8822C79.9964 15.3934 79.2077 15.3934 78.7183 15.8822M80.4858 17.6491L80.415 17.5784L80.4151 17.5783L80.4858 17.6491ZM73.977 24.1572L78.7183 15.8822M73.977 24.1572C73.4889 24.6459 72.6952 24.6459 72.2108 24.1572H73.977ZM78.7183 15.8822L78.7889 15.9529C78.789 15.9529 78.789 15.9529 78.789 15.9529L78.7183 15.8822Z" fill="#092C4C" stroke="white" stroke-width="0.2"/>
<path d="M72.2815 17.5784L72.2814 17.5783C71.831 17.1285 71.8314 16.3989 72.2812 15.9532L72.2818 15.9526C72.7269 15.5035 73.4571 15.5031 73.9063 15.9529L73.9063 15.9529L80.415 22.461C80.8641 22.9107 80.8642 23.6368 80.4151 24.0865C79.9647 24.5362 79.2393 24.5362 78.7889 24.0864L72.2815 17.5784Z" fill="#092C4C" stroke="white" stroke-width="0.2"/>
<path d="M45.9758 4.54687L45.9757 4.54669C45.5253 4.09695 44.7999 4.09694 44.3495 4.54665L45.9758 4.54687ZM45.9758 4.54687C46.4245 4.99262 46.4249 5.72229 45.9756 6.17215L39.4669 12.6796L39.4668 12.6796C39.0176 13.1294 38.2875 13.129 37.8424 12.6799L37.842 12.6796C37.3917 12.2299 37.3917 11.5039 37.842 11.0542L37.842 11.0541L44.3495 4.54669L45.9758 4.54687Z" fill="#092C4C" stroke="white" stroke-width="0.2"/>
<path d="M45.9752 11.0542L45.9752 11.0542L39.467 4.54665L39.467 4.54665C39.0172 4.0968 38.2876 4.09719 37.8418 4.54638L37.8413 4.54697C37.3922 4.99204 37.3917 5.72223 37.8416 6.1721L44.349 12.6796L45.9752 11.0542ZM45.9752 11.0542C46.4255 11.5039 46.4255 12.2299 45.9752 12.6796M45.9752 11.0542V12.6796M45.9752 12.6796C45.5249 13.1293 44.7994 13.1293 44.3491 12.6796L45.9752 12.6796Z" fill="#092C4C" stroke="white" stroke-width="0.2"/>
<path d="M39.3088 30.6963C41.3244 34.7988 42.6576 40.1038 42.5988 46.615C42.5907 47.3025 43.1432 47.8663 43.8332 47.87L39.3088 30.6963ZM39.3088 30.6963C36.8519 25.7113 33.4044 22.5363 30.2457 21.1632M39.3088 30.6963L30.2457 21.1632M30.2457 21.1632L30.2857 21.0715C29.7051 20.818 29.4399 20.1431 29.6905 19.5624C29.9441 18.9819 30.619 18.7168 31.1997 18.9674C34.811 20.5385 38.7279 24.0971 41.4559 29.636C43.6217 34.0385 45.0506 39.7067 44.9882 46.6348L44.9882 46.6349C44.9836 47.2661 44.4649 47.7775 43.8344 47.77L43.8337 47.77C43.1992 47.7666 42.6913 47.2483 42.6988 46.6162L42.6988 46.6159C42.7577 40.0904 41.4216 34.7698 39.3986 30.6522L39.3985 30.6521C36.9332 25.6501 33.47 22.4557 30.2855 21.0714L30.2457 21.1632Z" fill="#092C4C" stroke="white" stroke-width="0.2"/>
</g>
<defs>
<clipPath id="clip0_14961_8023">
<rect width="80" height="80" fill="white" transform="translate(0.787109)"/>
</clipPath>
</defs>
</svg>
