<svg width="81" height="80" viewBox="0 0 81 80" fill="none" xmlns="http://www.w3.org/2000/svg">
<g clip-path="url(#clip0_14960_7966)">
<path d="M33.5636 5.34912C18.1055 5.34912 5.57422 17.8804 5.57422 33.3385C5.57422 48.7966 18.1055 61.3279 33.5636 61.3279C49.0217 61.3279 61.553 48.7966 61.553 33.3385C61.5362 17.8874 49.0147 5.36595 33.5636 5.34912ZM33.5636 8.01478C41.7965 8.02127 49.5114 12.0338 54.2438 18.7707L50.9117 22.1028C50.1008 21.6121 49.1725 21.3496 48.2247 21.3431C45.2803 21.3431 42.8934 23.73 42.8934 26.6744C42.8981 27.6232 43.1591 28.553 43.6491 29.3653L34.9218 38.0927C33.2692 37.0851 31.1923 37.0851 29.5398 38.0927L23.4781 32.031C23.9681 31.2186 24.2291 30.2888 24.2338 29.34C24.2375 26.4015 21.8584 24.0164 18.9198 24.0127C16.4896 24.0097 14.3662 25.6536 13.7604 28.0072H8.81566C11.3392 16.3538 21.6401 8.03227 33.5636 8.01478ZM50.8904 26.6744C50.8904 28.1466 49.697 29.34 48.2247 29.34C46.7524 29.34 45.5591 28.1466 45.5591 26.6744C45.5591 25.2021 46.7524 24.0087 48.2247 24.0087C49.697 24.0087 50.8904 25.2021 50.8904 26.6744ZM34.8964 42.6683C34.8964 44.1406 33.7031 45.334 32.2308 45.334C30.7585 45.334 29.5651 44.1406 29.5651 42.6683C29.5651 41.196 30.7585 40.0026 32.2308 40.0026C33.7031 40.0026 34.8964 41.196 34.8964 42.6683ZM21.5682 29.34C21.5682 30.8123 20.3748 32.0057 18.9025 32.0057C17.4302 32.0057 16.2368 30.8123 16.2368 29.34C16.2368 27.8677 17.4302 26.6744 18.9025 26.6744C20.3748 26.6744 21.5682 27.8677 21.5682 29.34ZM45.8679 55.4811C42.104 57.571 37.869 58.6659 33.5636 58.6621C19.5872 58.6716 8.24937 47.3494 8.23987 33.373C8.23921 32.471 8.28686 31.5695 8.38249 30.6727H13.7604C14.3664 33.0193 16.4789 34.662 18.9025 34.6712C19.8513 34.6665 20.7811 34.4054 21.5935 33.9155L27.6552 39.9772C27.1652 40.7895 26.9041 41.7193 26.8995 42.6681C26.8995 45.6125 29.2864 47.9995 32.2308 47.9995C35.1752 47.9995 37.5621 45.6125 37.5621 42.6681C37.5574 41.7193 37.2964 40.7895 36.8064 39.9772L45.5337 31.2498C46.3461 31.7398 47.2759 32.0008 48.2247 32.0055C51.1691 32.0055 53.556 29.6186 53.556 26.6742C53.5514 25.7254 53.2903 24.7956 52.8003 23.9832L55.7059 21.079C62.4891 33.2957 58.0845 48.698 45.8679 55.4811Z" fill="#FF9A00"/>
<path d="M59.1565 65.326L59.298 65.1846L65.4103 59.0723L65.5517 58.9308L65.6932 59.0723L76.4208 69.7999C76.4209 69.8 76.421 69.8002 76.4212 69.8003C78.2068 71.5462 78.2393 74.4092 76.4935 76.1951C74.7476 77.9811 71.8843 78.0137 70.0983 76.2678M59.1565 65.326L70.2381 76.1248M59.1565 65.326L59.298 65.4675L70.0257 76.1952L59.1565 65.326ZM70.0983 76.2678L70.2381 76.1248M70.0983 76.2678C70.0985 76.2679 70.0986 76.2681 70.0988 76.2682L70.2381 76.1248M70.0983 76.2678C70.0825 76.2524 70.0671 76.2371 70.0519 76.2218C70.0432 76.213 70.0346 76.2043 70.0261 76.1956L70.0272 76.1967L70.1686 76.0553C70.1916 76.0788 70.2146 76.102 70.2381 76.1248M58.6611 51.2543L58.661 51.2545C58.2393 51.8436 57.8033 52.4219 57.3424 52.9795C57.2544 53.086 57.1602 53.1927 57.0687 53.2965C57.02 53.3515 56.9722 53.4058 56.9264 53.4587C56.9264 53.4587 56.9263 53.4588 56.9263 53.4588L56.7751 53.3279C56.3672 53.8024 55.946 54.2627 55.5115 54.7087L58.6611 51.2543ZM58.6611 51.2543C66.3381 40.5085 66.3381 26.0719 58.6611 15.326C48.7398 1.43854 29.439 -1.77639 15.5517 8.14492C1.66441 18.0662 -1.55069 37.367 8.37062 51.2543C18.2919 65.1417 37.5927 68.3568 51.48 58.4354L51.4802 58.4353C52.0692 58.0136 52.6476 57.5776 53.2052 57.1167L53.206 57.1161C53.2891 57.0467 53.3704 56.9749 53.4492 56.9053L53.4566 56.8987C53.5334 56.8308 53.6077 56.7652 53.6823 56.7025L53.6837 56.7013C54.1632 56.2907 54.6266 55.8666 55.074 55.4291M58.6611 51.2543L55.074 55.4291M55.074 55.4291C55.0738 55.4293 55.0737 55.4294 55.0736 55.4295L54.9344 55.2859L55.0743 55.4288C55.0742 55.4289 55.0741 55.429 55.074 55.4291ZM72.0266 9.14726H71.8717L71.833 9.29726C71.2498 11.5557 69.217 13.1365 66.8847 13.1457C65.9728 13.1404 65.079 12.8888 64.2983 12.4175L64.1642 12.3365L64.0535 12.4473L61.3878 15.1129L61.2733 15.2274L61.3615 15.3633C68.459 26.2957 68.459 40.3808 61.3615 51.3131L61.2733 51.4489L61.3878 51.5634L65.4103 55.5859L67.2949 57.4705L78.0242 68.1998C80.6749 70.8505 80.6749 75.1478 78.0242 77.7985C75.3735 80.4492 71.0761 80.4492 68.4254 77.7985L57.6962 67.0692L55.8116 65.1846L51.7891 61.1621L51.6747 61.0478L51.539 61.1357C37.0465 70.5213 17.7751 67.1988 7.26188 53.5022C-3.87578 38.9919 -1.14167 18.1998 13.3687 7.06217C27.879 -4.07549 48.6709 -1.34138 59.8085 13.169L59.9474 13.3498L60.1086 13.1886L62.4504 10.8468L62.5611 10.7362L62.4802 10.6021C62.009 9.82088 61.7579 8.9267 61.7532 8.01421C61.7534 5.18051 64.0505 2.88332 66.8842 2.88312C69.2167 2.89211 71.2498 4.47299 71.833 6.7316L71.8717 6.8816H72.0266H80.0128V9.14726H72.0266ZM63.8085 57.4705L63.95 57.3291L63.8085 57.1876L60.1193 53.4984L59.9579 53.337L59.8191 53.5182C59.7501 53.6083 59.677 53.6963 59.6011 53.7866C59.5907 53.799 59.5802 53.8115 59.5697 53.824C59.5044 53.9016 59.4372 53.9815 59.3723 54.0629L59.3723 54.063C59.2128 54.2631 59.0501 54.461 58.8843 54.6568L58.8837 54.6574C58.6397 54.9478 58.3936 55.2336 58.1412 55.5138C58.0588 55.6036 57.9777 55.6895 57.8955 55.7765C57.8454 55.8296 57.7948 55.8831 57.7433 55.9382C57.2345 56.4814 56.7085 57.0075 56.1652 57.5163C56.11 57.5679 56.0565 57.6184 56.0034 57.6686C55.9164 57.7508 55.8306 57.8318 55.7408 57.9142C55.4607 58.1665 55.1749 58.4126 54.8845 58.6566C54.6866 58.8227 54.4733 58.9988 54.2898 59.1454C54.2084 59.2104 54.1287 59.2774 54.0514 59.3425C54.0383 59.3535 54.0253 59.3644 54.0124 59.3753C53.9219 59.4513 53.834 59.5244 53.7439 59.5934L53.5627 59.7322L53.7241 59.8936L57.4133 63.5828L57.5548 63.7243L57.6962 63.5828L63.8085 57.4705ZM69.7502 8.01443C69.7502 6.4317 68.4673 5.14878 66.8846 5.14878C65.302 5.14878 64.0189 6.43169 64.0189 8.01443C64.0189 9.59717 65.3018 10.8801 66.8846 10.8801C68.4673 10.8801 69.7502 9.59717 69.7502 8.01443Z" fill="#092C4C" stroke="white" stroke-width="0.4"/>
</g>
<defs>
<clipPath id="clip0_14960_7966">
<rect width="80" height="80" fill="white" transform="translate(0.212891)"/>
</clipPath>
</defs>
</svg>
