<svg width="81" height="80" viewBox="0 0 81 80" fill="none" xmlns="http://www.w3.org/2000/svg">
<path d="M65.7623 64.8979L65.7613 64.8988L65.6862 64.974L65.6852 64.975C65.1161 65.5409 65.1135 66.4608 65.6794 67.03C65.9636 67.3157 66.3359 67.4586 66.7099 67.4586C67.0807 67.4586 67.45 67.3182 67.7336 67.0368L65.7623 64.8979ZM65.7623 64.8979C66.3283 64.3288 67.2483 64.3264 67.8174 64.8922C68.3861 65.4578 68.3889 66.3772 67.824 66.9463L65.7623 64.8979ZM34.489 60.9531H32.8229L34.2137 61.8705L37.0171 63.7197C37.6871 64.1617 37.8719 65.063 37.4301 65.7328L37.8474 66.0081L37.43 65.7328C37.151 66.1559 36.6888 66.3859 36.2152 66.3859C35.9408 66.3859 35.664 66.3086 35.417 66.1458C35.4169 66.1457 35.4169 66.1457 35.4169 66.1457L27.1809 60.7129L27.1808 60.7129C26.7732 60.4441 26.5279 59.9884 26.5279 59.4998C26.5279 59.0113 26.7732 58.5558 27.1809 58.2867L35.417 52.8541C36.087 52.4121 36.9881 52.5971 37.43 53.267C37.8719 53.937 37.687 54.8384 37.0172 55.2801L37.0171 55.2801L34.2138 57.1295L32.8233 58.0469H34.4891H40.7871C50.7386 58.0469 58.834 49.9515 58.834 40C58.834 38.3244 58.6048 36.6651 58.1522 35.0682C57.9334 34.2959 58.382 33.4927 59.154 33.2739C59.9268 33.0551 60.7296 33.5037 60.9484 34.2757C61.4737 36.1296 61.7402 38.0555 61.7402 40C61.7402 51.5531 52.3403 60.9531 40.7871 60.9531H34.489ZM72.8013 60.7968L73.2204 61.0695L72.8013 60.7968C72.3635 61.4696 71.4633 61.6598 70.7909 61.2221C70.1182 60.7841 69.9279 59.884 70.3657 59.2114C74.0863 53.4952 76.0527 46.8513 76.0527 40C76.0527 20.554 60.2331 4.73438 40.7871 4.73438C21.3411 4.73438 5.52148 20.554 5.52148 40C5.52148 59.446 21.3411 75.2656 40.7871 75.2656C47.6385 75.2656 54.2822 73.2992 59.9984 69.5785C60.6712 69.1406 61.5712 69.331 62.009 70.0035C62.4468 70.6762 62.2565 71.5763 61.5838 72.0143C55.3949 76.0424 48.2041 78.1719 40.7871 78.1719C30.59 78.1719 21.006 74.2021 13.7955 66.9916C6.58521 59.7813 2.61523 50.1969 2.61523 40C2.61523 29.8031 6.58521 20.2187 13.7955 13.0084C21.006 5.79795 30.59 1.82812 40.7871 1.82812C50.9842 1.82812 60.5683 5.79795 67.7787 13.0084C74.989 20.2187 78.959 29.8031 78.959 40C78.959 47.417 76.8295 54.608 72.8013 60.7968ZM67.8231 66.9473L67.7346 67.0357L67.8231 66.9473ZM47.3604 22.8705L48.7512 21.9531H47.0851H40.7871C30.8357 21.9531 22.7402 30.0485 22.7402 39.9997C22.7402 41.6754 22.9694 43.3348 23.422 44.9315C23.6408 45.7036 23.1923 46.5069 22.4201 46.7258L22.4197 46.726C22.2871 46.7637 22.1538 46.7814 22.0229 46.7814C21.3891 46.7814 20.807 46.363 20.6258 45.7239C20.1005 43.8703 19.834 41.9444 19.834 39.9997C19.834 28.4466 29.2339 19.0466 40.7871 19.0466H47.0852H48.7513L47.3605 18.1292L44.5571 16.28L44.2818 16.6973L44.5571 16.28C43.8872 15.8381 43.7023 14.9368 44.1442 14.2669C44.5861 13.5969 45.4872 13.4119 46.1573 13.8539L54.3933 19.2867C54.3933 19.2867 54.3933 19.2867 54.3934 19.2868C54.8011 19.5558 55.0463 20.0114 55.0463 20.4998C55.0463 20.9884 54.801 21.4441 54.3934 21.7129L54.6687 22.1303L54.3934 21.7129L46.1573 27.1456C46.1573 27.1456 46.1573 27.1456 46.1573 27.1456C45.9103 27.3085 45.6333 27.3858 45.359 27.3858C44.8854 27.3858 44.4232 27.1557 44.1442 26.7327L43.7268 27.008L44.1442 26.7326C43.7023 26.0628 43.8872 25.1614 44.5571 24.7196L44.2818 24.3022L44.5571 24.7196L47.3604 22.8705Z" fill="#092C4C" stroke="white"/>
<g clip-path="url(#clip0_14961_8000)">
<path d="M40.7871 61.4531H34.489L37.2924 63.3023C38.1929 63.8964 38.4413 65.1078 37.8474 66.0081C37.472 66.5773 36.8496 66.8859 36.2152 66.8859C35.846 66.8859 35.4729 66.7816 35.1416 66.5631L26.9055 61.1303C26.3576 60.7689 26.0279 60.1564 26.0279 59.4998C26.0279 58.8433 26.3576 58.2309 26.9055 57.8694L35.1416 52.4367C36.0423 51.8427 37.2535 52.0914 37.8474 52.9917C38.4413 53.8922 38.1929 55.1037 37.2924 55.6975L34.4891 57.5469H40.7871C50.4624 57.5469 58.334 49.6753 58.334 40C58.334 38.37 58.111 36.7566 57.6712 35.2045C57.3771 34.1666 57.9799 33.0869 59.0177 32.7928C60.0562 32.4987 61.1354 33.1017 61.4295 34.1394C61.9674 36.038 62.2402 38.0098 62.2402 40C62.2402 51.8292 52.6165 61.4531 40.7871 61.4531ZM68.1323 12.6548C60.828 5.35062 51.1168 1.32812 40.7871 1.32812C30.4574 1.32812 20.7462 5.35062 13.442 12.6548C6.13789 19.9589 2.11523 29.6705 2.11523 40C2.11523 50.3295 6.13789 60.0411 13.442 67.3452C20.7462 74.6494 30.4574 78.6719 40.7871 78.6719C48.3005 78.6719 55.5862 76.5145 61.8566 72.4333C62.7607 71.8447 63.0165 70.6348 62.428 69.7308C61.8396 68.8269 60.6299 68.5709 59.7257 69.1594C54.091 72.827 47.5421 74.7656 40.7871 74.7656C21.6173 74.7656 6.02148 59.1698 6.02148 40C6.02148 20.8302 21.6173 5.23438 40.7871 5.23438C59.957 5.23438 75.5527 20.8302 75.5527 40C75.5527 46.755 73.6141 53.3041 69.9466 58.9386C69.3582 59.8427 69.614 61.0525 70.5181 61.6411C71.422 62.2295 72.632 61.9738 73.2204 61.0695C77.3016 54.7992 79.459 47.5134 79.459 40C79.459 29.6705 75.4363 19.9589 68.1323 12.6548ZM65.4077 64.5453L65.3326 64.6205C64.5677 65.3811 64.5643 66.6177 65.3249 67.3827C65.7066 67.7664 66.2082 67.9586 66.7099 67.9586C67.2079 67.9586 67.706 67.7692 68.0871 67.3903L68.1776 67.2998C68.9382 66.535 68.9348 65.2983 68.1699 64.5377C67.4051 63.7772 66.1685 63.7803 65.4077 64.5453ZM40.7871 22.4531H47.0851L44.2818 24.3022C43.3813 24.8961 43.1329 26.1077 43.7268 27.008C44.1023 27.5772 44.7246 27.8858 45.359 27.8858C45.7281 27.8858 46.1013 27.7814 46.4326 27.563L54.6687 22.1303C55.2166 21.7689 55.5463 21.1564 55.5463 20.4998C55.5463 19.8433 55.2166 19.2309 54.6687 18.8694L46.4326 13.4366C45.532 12.8425 44.3207 13.0911 43.7268 13.9916C43.1329 14.892 43.3813 16.1034 44.2818 16.6973L47.0852 18.5466H40.7871C28.9577 18.5466 19.334 28.1705 19.334 39.9997C19.334 41.9902 19.6068 43.9619 20.1448 45.8603C20.3885 46.7202 21.1713 47.2814 22.0229 47.2814C22.1991 47.2814 22.3785 47.2575 22.5565 47.2069C23.5943 46.9127 24.1971 45.833 23.903 44.7952C23.4632 43.2433 23.2402 41.6298 23.2402 39.9997C23.2402 30.3247 31.1118 22.4531 40.7871 22.4531Z" fill="#FF9B00"/>
</g>
<defs>
<clipPath id="clip0_14961_8000">
<rect x="15.7871" y="11.6665" width="50" height="56.6667" rx="11.6667" fill="white"/>
</clipPath>
</defs>
</svg>
