<svg width="48" height="48" viewBox="0 0 48 48" fill="none" xmlns="http://www.w3.org/2000/svg">
<g clip-path="url(#clip0_14960_7723)">
<path d="M46.7694 20.2551L43.406 18.9605C42.9404 17.1635 42.2283 15.4456 41.2847 13.8434L42.7485 10.5476C42.8744 10.2641 42.8128 9.93225 42.5934 9.71287L38.2871 5.40656C38.0677 5.18719 37.7361 5.1255 37.4524 5.25141L34.1554 6.71578C32.5529 5.77228 30.8357 5.06025 29.04 4.59488L27.745 1.23056C27.6335 0.941063 27.3552 0.75 27.0449 0.75H20.955C20.6447 0.75 20.3665 0.941063 20.2551 1.23056L18.96 4.59497C17.1643 5.06025 15.447 5.77228 13.8446 6.71588L10.5476 5.2515C10.264 5.12559 9.93234 5.18728 9.71287 5.40666L5.40656 9.71297C5.18719 9.93234 5.12559 10.2641 5.2515 10.5477L6.71559 13.8443C5.77209 15.4466 5.06006 17.1641 4.59469 18.9603L1.23056 20.2552C0.941063 20.3665 0.75 20.6448 0.75 20.9551V27.0451C0.75 27.3554 0.941063 27.6336 1.23056 27.745L4.59413 29.0396C5.05969 30.8366 5.77181 32.5546 6.71531 34.1567L5.2515 37.4525C5.12559 37.736 5.18719 38.0678 5.40656 38.2872L9.71297 42.5935C9.93244 42.8129 10.2641 42.8747 10.5477 42.7487L13.8447 41.2843C15.4472 42.2279 17.1644 42.9398 18.9601 43.4052L20.2551 46.7695C20.3664 47.0591 20.6447 47.2501 20.955 47.2501H27.045C27.3553 47.2501 27.6335 47.059 27.7449 46.7695L29.0396 43.4062C30.8364 42.9407 32.5544 42.2286 34.1567 41.285L37.4524 42.7488C37.736 42.8748 38.0677 42.8131 38.2871 42.5937L42.5934 38.2873C42.8128 38.0679 42.8744 37.7362 42.7485 37.4526L41.2842 34.1557C42.2277 32.5532 42.9398 30.836 43.405 29.0402L46.7694 27.7452C47.0589 27.6338 47.25 27.3556 47.25 27.0453V20.9553C47.25 20.6447 47.0589 20.3664 46.7694 20.2551ZM45.75 26.53L42.5019 27.7802C42.2711 27.869 42.099 28.0658 42.0418 28.3065C41.5874 30.2157 40.8337 32.0335 39.8016 33.7097C39.6719 33.9203 39.6545 34.1813 39.7548 34.4074L41.1685 37.5906L37.5906 41.1686L34.4086 39.7553C34.1828 39.6549 33.9217 39.6724 33.7109 39.8022C32.0351 40.8343 30.2167 41.5881 28.3063 42.0427C28.0657 42.0999 27.8688 42.2721 27.78 42.5029L26.53 45.75H21.47L20.2197 42.502C20.1309 42.2712 19.934 42.0991 19.6935 42.0418C17.7844 41.5875 15.9665 40.8338 14.2902 39.8018C14.0795 39.672 13.8185 39.6547 13.5926 39.7549L10.4094 41.1686L6.83137 37.5906L8.24466 34.4086C8.34497 34.1826 8.32753 33.9215 8.19778 33.7109C7.16578 32.0353 6.41203 30.2169 5.95734 28.3063C5.90016 28.0657 5.72794 27.8688 5.49722 27.78L2.25 26.5301V21.47L5.49778 20.2199C5.72859 20.1311 5.90072 19.9342 5.95791 19.6936C6.41241 17.7839 7.16616 15.9659 8.19816 14.29C8.32791 14.0794 8.34534 13.8184 8.24503 13.5923L6.83147 10.4095L10.4094 6.83137L13.5926 8.24512C13.8185 8.34544 14.0796 8.328 14.2902 8.19825C15.9664 7.16625 17.7843 6.41259 19.6935 5.95819C19.934 5.90091 20.1309 5.72878 20.2197 5.49797L21.4701 2.25H26.53L27.7803 5.49797C27.8691 5.72878 28.066 5.90091 28.3065 5.95819C30.2157 6.41259 32.0336 7.16625 33.7098 8.19825C33.9205 8.328 34.1815 8.34534 34.4074 8.24512L37.5906 6.83137L41.1686 10.4094L39.7553 13.5914C39.655 13.8174 39.6725 14.0785 39.8022 14.2891C40.8343 15.9647 41.5881 17.7831 42.0427 19.6937C42.0998 19.9342 42.272 20.1312 42.5028 20.22L45.75 21.4699V26.53ZM36.807 16.5545C38.119 18.8061 38.8125 21.3807 38.8125 24C38.8125 32.1677 32.1676 38.8125 24 38.8125C21.1162 38.8125 18.2987 37.9657 15.9036 36.4032L15.9912 36.7103C16.1048 37.1087 15.874 37.5236 15.4758 37.6373C15.4071 37.6569 15.3377 37.6663 15.2696 37.6663C14.9432 37.6663 14.6428 37.4514 14.5488 37.1219L13.8369 34.6271C13.7737 34.4054 13.8159 34.1669 13.9515 33.9804C14.0871 33.7939 14.3009 33.6801 14.5313 33.6718L17.124 33.5786C17.5394 33.562 17.8856 33.8872 17.9004 34.3013C17.9153 34.7153 17.5918 35.0628 17.1778 35.0777L16.6459 35.0968C18.8147 36.5335 21.377 37.3125 24 37.3125C31.3405 37.3125 37.3125 31.3405 37.3125 24C37.3125 21.6458 36.6895 19.3323 35.511 17.3096C35.3024 16.9517 35.4235 16.4925 35.7815 16.284C36.1394 16.0754 36.5985 16.1966 36.807 16.5545ZM10.6875 24C10.6875 26.3548 11.3105 28.6687 12.489 30.6914C12.6976 31.0492 12.5765 31.5084 12.2185 31.7169C12.0997 31.7861 11.9699 31.819 11.8417 31.819C11.5835 31.819 11.3322 31.6856 11.1929 31.4465C9.88097 29.1949 9.1875 26.6198 9.1875 24C9.1875 15.8323 15.8324 9.1875 24 9.1875C26.8838 9.1875 29.7015 10.0345 32.0967 11.5976L32.0088 11.2895C31.8952 10.8911 32.126 10.4761 32.5243 10.3625C32.9224 10.2487 33.3377 10.4797 33.4513 10.8779L34.1631 13.3727C34.2263 13.5944 34.1841 13.8329 34.0485 14.0194C33.9129 14.2059 33.6991 14.3197 33.4687 14.328L30.8761 14.4212C30.8669 14.4216 30.8578 14.4217 30.8487 14.4217C30.4469 14.4217 30.1142 14.1034 30.0997 13.6986C30.0848 13.2847 30.4083 12.937 30.8223 12.9221L31.3532 12.9031C29.1844 11.4664 26.6225 10.6875 24 10.6875C16.6595 10.6875 10.6875 16.6595 10.6875 24ZM21.0428 32.6836H21.653C22.0672 32.6836 22.403 32.3478 22.403 31.9336L22.4031 27.067C24.7882 27.6492 26.8921 28.8946 29.0065 30.234C29.2898 30.4133 29.6052 30.5035 29.9218 30.5035C30.2042 30.5035 30.4874 30.4318 30.7493 30.2876C31.3049 29.9819 31.6366 29.4208 31.6366 28.7867V25.5545C32.7661 25.2616 33.6026 24.2335 33.6026 23.0138C33.6026 21.7944 32.7668 20.7668 31.6366 20.4734V17.0333C31.6366 16.418 31.3194 15.8651 30.7884 15.5545C30.2572 15.2438 29.62 15.2384 29.0836 15.54C28.7302 15.7387 28.3751 15.9437 27.9995 16.1607C26.0434 17.2902 23.8291 18.5689 21.5755 19.0501H18.3198C16.1571 19.0501 14.3975 20.8096 14.3975 22.9723C14.3975 25.135 16.1571 26.8945 18.3198 26.8945H18.5497V30.1903C18.5496 31.5651 19.6681 32.6836 21.0428 32.6836ZM32.1025 23.0138C32.1025 23.388 31.918 23.7192 31.6365 23.9237V22.1042C31.9182 22.3088 32.1025 22.6398 32.1025 23.0138ZM20.0496 30.1903V26.8945H20.9031L20.903 31.1737C20.4213 31.1055 20.0496 30.6905 20.0496 30.1903ZM27.5465 27.5999C25.955 26.7049 24.2592 25.9302 22.4031 25.5262L22.4032 20.3933C24.2248 19.9209 25.9542 19.043 27.5465 18.1478V27.5999ZM29.8187 16.8474C29.8934 16.8054 29.9569 16.806 30.031 16.8494C30.105 16.8926 30.1365 16.9477 30.1365 17.0333V28.7867C30.1365 28.8739 30.1025 28.9314 30.026 28.9735C29.9495 29.0156 29.8827 29.0135 29.8091 28.9669C29.5572 28.8073 29.303 28.6477 29.0465 28.4891V17.2882C29.3107 17.136 29.5663 16.9894 29.8187 16.8474ZM15.8974 22.9723C15.8974 21.6367 16.984 20.5501 18.3197 20.5501H20.9032L20.9031 25.3945H18.3197C16.984 25.3945 15.8974 24.3079 15.8974 22.9723Z" fill="#092C4C"/>
<g clip-path="url(#clip1_14960_7723)">
<path d="M46.7694 20.2551L43.406 18.9605C42.9404 17.1635 42.2283 15.4456 41.2847 13.8434L42.7485 10.5476C42.8744 10.2641 42.8128 9.93225 42.5934 9.71287L38.2871 5.40656C38.0677 5.18719 37.7361 5.1255 37.4524 5.25141L34.1554 6.71578C32.5529 5.77228 30.8357 5.06025 29.04 4.59488L27.745 1.23056C27.6335 0.941063 27.3552 0.75 27.0449 0.75H20.955C20.6447 0.75 20.3665 0.941063 20.2551 1.23056L18.96 4.59497C17.1643 5.06025 15.447 5.77228 13.8446 6.71588L10.5476 5.2515C10.264 5.12559 9.93234 5.18728 9.71287 5.40666L5.40656 9.71297C5.18719 9.93234 5.12559 10.2641 5.2515 10.5477L6.71559 13.8443C5.77209 15.4466 5.06006 17.1641 4.59469 18.9603L1.23056 20.2552C0.941063 20.3665 0.75 20.6448 0.75 20.9551V27.0451C0.75 27.3554 0.941063 27.6336 1.23056 27.745L4.59413 29.0396C5.05969 30.8366 5.77181 32.5546 6.71531 34.1567L5.2515 37.4525C5.12559 37.736 5.18719 38.0678 5.40656 38.2872L9.71297 42.5935C9.93244 42.8129 10.2641 42.8747 10.5477 42.7487L13.8447 41.2843C15.4472 42.2279 17.1644 42.9398 18.9601 43.4052L20.2551 46.7695C20.3664 47.0591 20.6447 47.2501 20.955 47.2501H27.045C27.3553 47.2501 27.6335 47.059 27.7449 46.7695L29.0396 43.4062C30.8364 42.9407 32.5544 42.2286 34.1567 41.285L37.4524 42.7488C37.736 42.8748 38.0677 42.8131 38.2871 42.5937L42.5934 38.2873C42.8128 38.0679 42.8744 37.7362 42.7485 37.4526L41.2842 34.1557C42.2277 32.5532 42.9398 30.836 43.405 29.0402L46.7694 27.7452C47.0589 27.6338 47.25 27.3556 47.25 27.0453V20.9553C47.25 20.6447 47.0589 20.3664 46.7694 20.2551ZM45.75 26.53L42.5019 27.7802C42.2711 27.869 42.099 28.0658 42.0418 28.3065C41.5874 30.2157 40.8337 32.0335 39.8016 33.7097C39.6719 33.9203 39.6545 34.1813 39.7548 34.4074L41.1685 37.5906L37.5906 41.1686L34.4086 39.7553C34.1828 39.6549 33.9217 39.6724 33.7109 39.8022C32.0351 40.8343 30.2167 41.5881 28.3063 42.0427C28.0657 42.0999 27.8688 42.2721 27.78 42.5029L26.53 45.75H21.47L20.2197 42.502C20.1309 42.2712 19.934 42.0991 19.6935 42.0418C17.7844 41.5875 15.9665 40.8338 14.2902 39.8018C14.0795 39.672 13.8185 39.6547 13.5926 39.7549L10.4094 41.1686L6.83137 37.5906L8.24466 34.4086C8.34497 34.1826 8.32753 33.9215 8.19778 33.7109C7.16578 32.0353 6.41203 30.2169 5.95734 28.3063C5.90016 28.0657 5.72794 27.8688 5.49722 27.78L2.25 26.5301V21.47L5.49778 20.2199C5.72859 20.1311 5.90072 19.9342 5.95791 19.6936C6.41241 17.7839 7.16616 15.9659 8.19816 14.29C8.32791 14.0794 8.34534 13.8184 8.24503 13.5923L6.83147 10.4095L10.4094 6.83137L13.5926 8.24512C13.8185 8.34544 14.0796 8.328 14.2902 8.19825C15.9664 7.16625 17.7843 6.41259 19.6935 5.95819C19.934 5.90091 20.1309 5.72878 20.2197 5.49797L21.4701 2.25H26.53L27.7803 5.49797C27.8691 5.72878 28.066 5.90091 28.3065 5.95819C30.2157 6.41259 32.0336 7.16625 33.7098 8.19825C33.9205 8.328 34.1815 8.34534 34.4074 8.24512L37.5906 6.83137L41.1686 10.4094L39.7553 13.5914C39.655 13.8174 39.6725 14.0785 39.8022 14.2891C40.8343 15.9647 41.5881 17.7831 42.0427 19.6937C42.0998 19.9342 42.272 20.1312 42.5028 20.22L45.75 21.4699V26.53ZM36.807 16.5545C38.119 18.8061 38.8125 21.3807 38.8125 24C38.8125 32.1677 32.1676 38.8125 24 38.8125C21.1162 38.8125 18.2987 37.9657 15.9036 36.4032L15.9912 36.7103C16.1048 37.1087 15.874 37.5236 15.4758 37.6373C15.4071 37.6569 15.3377 37.6663 15.2696 37.6663C14.9432 37.6663 14.6428 37.4514 14.5488 37.1219L13.8369 34.6271C13.7737 34.4054 13.8159 34.1669 13.9515 33.9804C14.0871 33.7939 14.3009 33.6801 14.5313 33.6718L17.124 33.5786C17.5394 33.562 17.8856 33.8872 17.9004 34.3013C17.9153 34.7153 17.5918 35.0628 17.1778 35.0777L16.6459 35.0968C18.8147 36.5335 21.377 37.3125 24 37.3125C31.3405 37.3125 37.3125 31.3405 37.3125 24C37.3125 21.6458 36.6895 19.3323 35.511 17.3096C35.3024 16.9517 35.4235 16.4925 35.7815 16.284C36.1394 16.0754 36.5985 16.1966 36.807 16.5545ZM10.6875 24C10.6875 26.3548 11.3105 28.6687 12.489 30.6914C12.6976 31.0492 12.5765 31.5084 12.2185 31.7169C12.0997 31.7861 11.9699 31.819 11.8417 31.819C11.5835 31.819 11.3322 31.6856 11.1929 31.4465C9.88097 29.1949 9.1875 26.6198 9.1875 24C9.1875 15.8323 15.8324 9.1875 24 9.1875C26.8838 9.1875 29.7015 10.0345 32.0967 11.5976L32.0088 11.2895C31.8952 10.8911 32.126 10.4761 32.5243 10.3625C32.9224 10.2487 33.3377 10.4797 33.4513 10.8779L34.1631 13.3727C34.2263 13.5944 34.1841 13.8329 34.0485 14.0194C33.9129 14.2059 33.6991 14.3197 33.4687 14.328L30.8761 14.4212C30.8669 14.4216 30.8578 14.4217 30.8487 14.4217C30.4469 14.4217 30.1142 14.1034 30.0997 13.6986C30.0848 13.2847 30.4083 12.937 30.8223 12.9221L31.3532 12.9031C29.1844 11.4664 26.6225 10.6875 24 10.6875C16.6595 10.6875 10.6875 16.6595 10.6875 24ZM21.0428 32.6836H21.653C22.0672 32.6836 22.403 32.3478 22.403 31.9336L22.4031 27.067C24.7882 27.6492 26.8921 28.8946 29.0065 30.234C29.2898 30.4133 29.6052 30.5035 29.9218 30.5035C30.2042 30.5035 30.4874 30.4318 30.7493 30.2876C31.3049 29.9819 31.6366 29.4208 31.6366 28.7867V25.5545C32.7661 25.2616 33.6026 24.2335 33.6026 23.0138C33.6026 21.7944 32.7668 20.7668 31.6366 20.4734V17.0333C31.6366 16.418 31.3194 15.8651 30.7884 15.5545C30.2572 15.2438 29.62 15.2384 29.0836 15.54C28.7302 15.7387 28.3751 15.9437 27.9995 16.1607C26.0434 17.2902 23.8291 18.5689 21.5755 19.0501H18.3198C16.1571 19.0501 14.3975 20.8096 14.3975 22.9723C14.3975 25.135 16.1571 26.8945 18.3198 26.8945H18.5497V30.1903C18.5496 31.5651 19.6681 32.6836 21.0428 32.6836ZM32.1025 23.0138C32.1025 23.388 31.918 23.7192 31.6365 23.9237V22.1042C31.9182 22.3088 32.1025 22.6398 32.1025 23.0138ZM20.0496 30.1903V26.8945H20.9031L20.903 31.1737C20.4213 31.1055 20.0496 30.6905 20.0496 30.1903ZM27.5465 27.5999C25.955 26.7049 24.2592 25.9302 22.4031 25.5262L22.4032 20.3933C24.2248 19.9209 25.9542 19.043 27.5465 18.1478V27.5999ZM29.8187 16.8474C29.8934 16.8054 29.9569 16.806 30.031 16.8494C30.105 16.8926 30.1365 16.9477 30.1365 17.0333V28.7867C30.1365 28.8739 30.1025 28.9314 30.026 28.9735C29.9495 29.0156 29.8827 29.0135 29.8091 28.9669C29.5572 28.8073 29.303 28.6477 29.0465 28.4891V17.2882C29.3107 17.136 29.5663 16.9894 29.8187 16.8474ZM15.8974 22.9723C15.8974 21.6367 16.984 20.5501 18.3197 20.5501H20.9032L20.9031 25.3945H18.3197C16.984 25.3945 15.8974 24.3079 15.8974 22.9723Z" fill="#FF9B00"/>
</g>
</g>
<defs>
<clipPath id="clip0_14960_7723">
<rect width="48" height="48" fill="white"/>
</clipPath>
<clipPath id="clip1_14960_7723">
<rect x="13" y="15" width="22" height="18" rx="4" fill="white"/>
</clipPath>
</defs>
</svg>
